<svg id="Layer_1" data-name="Layer 1" xmlns="http://www.w3.org/2000/svg" viewBox="0 0 328.08 82.21"><defs><style>.cls-1{fill:#1db4bc;}</style></defs><title>AlohaAI_Logo_ver1108</title><path class="cls-1" d="M56.57,65.25q2.08,5.44,1.86,8.39a2.86,2.86,0,0,1-3.22,2.95A9.34,9.34,0,0,1,52,76,7.8,7.8,0,0,1,49,74a19.54,19.54,0,0,1-2.9-4.31,53.75,53.75,0,0,1-3-7.21q-2.36.09-4.49,0.14t-4.49,0q-3.45,0-7.3-.18T19.2,61.8a43.15,43.15,0,0,0-1.31,6.35q-0.32,2.72-.73,4.58a5.87,5.87,0,0,1-1.36,2.86,5.22,5.22,0,0,1-3.22,1.27,6,6,0,0,1-1.63.14,15,15,0,0,1-1.81-.23A13.39,13.39,0,0,1,6,75.32a6.4,6.4,0,0,1-2.45-2.63,15.65,15.65,0,0,1-.41-6.76,40.25,40.25,0,0,1,2.31-8.84,10.16,10.16,0,0,1-2.68-2.22A12,12,0,0,1,.84,52,9.14,9.14,0,0,1,0,49.11,2.46,2.46,0,0,1,.61,47a0.91,0.91,0,0,1,1-.54,6.6,6.6,0,0,1,2,.36l2.49,0.82q1.36,0.45,2.63.82,1.72-4.08,4.13-9.11a109.47,109.47,0,0,1,5.4-9.93,72.18,72.18,0,0,1,6.48-9,29.61,29.61,0,0,1,7.48-6.48,12.32,12.32,0,0,1,.14-4.31,2.78,2.78,0,0,1,2.22-1.77,22,22,0,0,1,2.86.23,18.17,18.17,0,0,1,3.31.77,12.37,12.37,0,0,1,3,1.5,5.59,5.59,0,0,1,2,2.4,11.15,11.15,0,0,1,1,4.44q0,2.27.23,4.63t0.77,5.89q0.59,3.63,1.45,7.89t1.9,8.84q1,4.58,2,8.66t1.86,7.3A49.81,49.81,0,0,0,56.57,65.25ZM22.47,51.46q2.09,0.27,4.54.45t4.9,0.27q2.36,0.09,4.22.14t3.58,0q-1.45-6-2.68-12.33L34.71,28q-3.18,4.54-5,7.66t-3,5.67q-1.18,2.54-2.09,4.85T22.47,51.46Z"/><path class="cls-1" d="M91.21,60.81a8.44,8.44,0,0,1-.91,5.26,17.2,17.2,0,0,1-3.85,5.12A22.88,22.88,0,0,1,80.73,75a14.9,14.9,0,0,1-6.48,1.54,10.44,10.44,0,0,1-5.76-1.72,9.68,9.68,0,0,1-3.85-5.62,49.24,49.24,0,0,1-1.18-6.39q-0.63-4.58-.91-10.43T62.41,40.17a83.06,83.06,0,0,1,1-11.83,34.26,34.26,0,0,1,2.72-9.21Q68,15.37,71,14.83a8,8,0,0,1,2.77.36,15.08,15.08,0,0,1,2.95,1.18A12,12,0,0,1,80,18.45,7.06,7.06,0,0,1,82,21.36a3.65,3.65,0,0,1,.14,1.72,3.32,3.32,0,0,1-.86,1.72,19.7,19.7,0,0,0-2.22,4.94Q78.06,33,77.2,37t-1.45,8.3q-0.59,4.31-.86,8.25a64.91,64.91,0,0,0-.14,7.17,20.09,20.09,0,0,0,.68,4.94,4.76,4.76,0,0,0,1.13,1.81,2.75,2.75,0,0,0,1.95.63,4.87,4.87,0,0,0,3-1.22A19.9,19.9,0,0,0,84.41,64q1.36-1.63,2.49-3.22t1.77-2.31a1.63,1.63,0,0,1,1.59.68A3.86,3.86,0,0,1,91.21,60.81Z"/><path class="cls-1" d="M119,63.89a23.53,23.53,0,0,1-2.31,4.49,19.46,19.46,0,0,1-3.58,4.13,18.66,18.66,0,0,1-4.76,3,14.36,14.36,0,0,1-5.85,1.18,14.86,14.86,0,0,1-5.26-1,18,18,0,0,1-4.62-2.54,18.56,18.56,0,0,1-3.67-3.72,16.23,16.23,0,0,1-2.4-4.58,21,21,0,0,1-1-9.34,24,24,0,0,1,2.72-8.62,19.22,19.22,0,0,1,5.44-6.35,12,12,0,0,1,7.3-2.45,9.22,9.22,0,0,1,2.31.32,7.75,7.75,0,0,1,2.22,1q0.73-.18,1.41-0.32a7.14,7.14,0,0,1,1.41-.14,9.5,9.5,0,0,1,6.3,2.09,14.82,14.82,0,0,1,3.9,5,19.35,19.35,0,0,1,1.77,6.26,16.1,16.1,0,0,1-.27,5.76,4.21,4.21,0,0,0,2.63,1,3.5,3.5,0,0,0,2.95-1.36q1-1.36,2.22-3.17A2.4,2.4,0,0,1,129,53.46a3.53,3.53,0,0,1,1.77.77,4,4,0,0,1,1,1.41,6.85,6.85,0,0,1,0,3.22,8.11,8.11,0,0,1-1.5,3.08,8.78,8.78,0,0,1-2.72,2.31,7.33,7.33,0,0,1-3.63.91A10.71,10.71,0,0,1,119,63.89Zm-15.33,4.44A5.09,5.09,0,0,0,106.9,67,8.41,8.41,0,0,0,109,63.93a14.62,14.62,0,0,0,1-4.17,18,18,0,0,0-.14-4.58,12,12,0,0,1-1.63-1.54,21,21,0,0,1-1.72-2.18A28.5,28.5,0,0,1,105,49a12.28,12.28,0,0,1-1.09-2.58,1.75,1.75,0,0,1-.14-0.86,6.59,6.59,0,0,0,0-.68,8.9,8.9,0,0,0-3.31,2.72,15.23,15.23,0,0,0-2.36,4.31,18.62,18.62,0,0,0-1,5,13.61,13.61,0,0,0,.54,5,14.68,14.68,0,0,0,2.22,4.4A4.5,4.5,0,0,0,103.63,68.33Z"/><path class="cls-1" d="M173.46,61.17a7.35,7.35,0,0,1-1.22,4.54,22.45,22.45,0,0,1-4,5,26.41,26.41,0,0,1-5.62,4.13,12.65,12.65,0,0,1-6.12,1.72,11.37,11.37,0,0,1-5.44-1.13,7.89,7.89,0,0,1-3.17-3,11.16,11.16,0,0,1-1.36-4.35,23.85,23.85,0,0,1,0-5.08q0.18-1.9.54-3.9t0.72-3.76q0.36-1.77.54-3.22a4.85,4.85,0,0,0-.09-2.18,2.06,2.06,0,0,0-.59-1,2.12,2.12,0,0,0-1.41-.36,3.55,3.55,0,0,0-3.17,2.27q-0.54,1-1.13,2.22a16.45,16.45,0,0,0-1.09,3.58,56.83,56.83,0,0,0-.86,6.3q-0.36,3.94-.45,10.47A3.37,3.37,0,0,1,138.41,76a3.52,3.52,0,0,1-2.4,1,6.45,6.45,0,0,1-4.08-1.27,9.62,9.62,0,0,1-2.63-3.17,10.57,10.57,0,0,1-1.09-3,22.14,22.14,0,0,1-.86-5.21q-0.14-2.77,0-5.12,0.09-2.63.09-6.94t0.18-9.21q0.18-4.9.59-9.93a73.3,73.3,0,0,1,1.32-9.29,30.14,30.14,0,0,1,2.36-7.17,6.17,6.17,0,0,1,3.81-3.54,10.06,10.06,0,0,1,2.81.45,15.43,15.43,0,0,1,2.9,1.18,13.38,13.38,0,0,1,3.36,2.09,6.12,6.12,0,0,1,2.09,2.9,3.3,3.3,0,0,1-.54,3.45,15.87,15.87,0,0,0-1.86,3.54,38.39,38.39,0,0,0-1.54,4.94q-0.68,2.77-1.22,6t-0.91,6.48A17.2,17.2,0,0,1,146,40.08a12,12,0,0,1,5.12-1.31,11.35,11.35,0,0,1,5.67,1.41,6.84,6.84,0,0,1,3.31,3.95,11.89,11.89,0,0,1,.45,5.35,56.25,56.25,0,0,1-1.09,6.08q-0.73,3.08-1.27,5.89a10.69,10.69,0,0,0,0,4.81,2.9,2.9,0,0,0,.41,1.22,1.14,1.14,0,0,0,1,.5,7.13,7.13,0,0,0,3.81-1.77,18.14,18.14,0,0,0,4.35-4.94,19,19,0,0,1,1.27-1.68,2.22,2.22,0,0,1,1-.86,5.26,5.26,0,0,1,2,.45A2.41,2.41,0,0,1,173.46,61.17Z"/><path class="cls-1" d="M216.81,60a6.93,6.93,0,0,1-.77,4.76,22.62,22.62,0,0,1-3.63,5.35,23.7,23.7,0,0,1-5.26,4.4,10.73,10.73,0,0,1-5.58,1.81,12.16,12.16,0,0,1-6-1.36,9,9,0,0,1-3.81-5.08,11.27,11.27,0,0,1-4.4,5.08,12.31,12.31,0,0,1-5.4,1.81,13.43,13.43,0,0,1-13.33-10,17,17,0,0,1-.91-6.48A24,24,0,0,1,169,53.82a25.21,25.21,0,0,1,3-6,27.16,27.16,0,0,1,4.26-4.94,19.77,19.77,0,0,1,5-3.36,12.86,12.86,0,0,1,5.4-1.22,8.43,8.43,0,0,1,1.95.23,14.37,14.37,0,0,1,1.68.5l0.36-2.45a1.31,1.31,0,0,1,.82-0.91,3.23,3.23,0,0,1,1.45-.36,11.58,11.58,0,0,1,2.67.36,16.54,16.54,0,0,1,2.9,1,13,13,0,0,1,2.58,1.54,5.88,5.88,0,0,1,1.72,2,45.2,45.2,0,0,1,0,6q-0.18,4.81-.91,14.42a20.38,20.38,0,0,0-.18,2.72v2.81A2,2,0,0,0,204,67.7a5.28,5.28,0,0,0,3.81-1.9A34.13,34.13,0,0,0,211.55,61l1.63-2.72a1.89,1.89,0,0,1,1.45-.73,1.75,1.75,0,0,1,1.36.86A4.71,4.71,0,0,1,216.81,60ZM185,66.88a5.64,5.64,0,0,0,2.9-.77,3.91,3.91,0,0,0,1.45-1.81,10.54,10.54,0,0,0,.63-2.63q0.18-1.5.36-3.13,0.09-3.54.27-6.94t0.27-6.85a2.58,2.58,0,0,0-2.18-.45,7.11,7.11,0,0,0-4.08,2.81,18,18,0,0,0-2.72,5.26,24.86,24.86,0,0,0-1.22,6.08,13.54,13.54,0,0,0,.5,5.26,4.57,4.57,0,0,0,1.5,2.49A3.88,3.88,0,0,0,185,66.88Z"/><path class="cls-1" d="M228.69,76.13A13.76,13.76,0,0,1,227.1,76a12,12,0,0,1-1.5-.27,9.87,9.87,0,0,1-3.85-2.13,7.79,7.79,0,0,1-2.31-3.49A4.18,4.18,0,0,1,220,66q1.4-1.81,4.58-1.81a11.23,11.23,0,0,1,5.08,1.09,5.25,5.25,0,0,1,2.81,2.9,7.92,7.92,0,0,1,.41,2.77,6.84,6.84,0,0,1-.54,2.54,4.64,4.64,0,0,1-1.45,1.86A4.07,4.07,0,0,1,228.69,76.13Z"/><path class="cls-1" d="M294.53,65.25q2.08,5.44,1.86,8.39a2.86,2.86,0,0,1-3.22,2.95,9.34,9.34,0,0,1-3.22-.54A7.8,7.8,0,0,1,287,74a19.54,19.54,0,0,1-2.9-4.31,53.75,53.75,0,0,1-3-7.21q-2.36.09-4.49,0.14t-4.49,0q-3.45,0-7.3-.18t-7.66-.63a43.15,43.15,0,0,0-1.31,6.35q-0.32,2.72-.73,4.58a5.87,5.87,0,0,1-1.36,2.86,5.22,5.22,0,0,1-3.22,1.27,6,6,0,0,1-1.63.14,15,15,0,0,1-1.81-.23,13.39,13.39,0,0,1-3.17-1.45,6.4,6.4,0,0,1-2.45-2.63,15.64,15.64,0,0,1-.41-6.76,40.31,40.31,0,0,1,2.31-8.84,10.16,10.16,0,0,1-2.68-2.22,12,12,0,0,1-1.9-2.9,9.14,9.14,0,0,1-.82-2.86,2.46,2.46,0,0,1,.59-2.09,0.91,0.91,0,0,1,1-.54,6.59,6.59,0,0,1,2,.36L244,47.66q1.36,0.45,2.63.82,1.72-4.08,4.13-9.11a109.47,109.47,0,0,1,5.4-9.93,72.28,72.28,0,0,1,6.48-9,29.61,29.61,0,0,1,7.48-6.48,12.32,12.32,0,0,1,.14-4.31,2.78,2.78,0,0,1,2.22-1.77,22,22,0,0,1,2.86.23,18.2,18.2,0,0,1,3.31.77,12.41,12.41,0,0,1,3,1.5,5.59,5.59,0,0,1,2,2.4,11.13,11.13,0,0,1,1,4.44q0,2.27.23,4.63t0.77,5.89q0.59,3.63,1.45,7.89t1.9,8.84q1,4.58,2,8.66T293,60.4A49.59,49.59,0,0,0,294.53,65.25Zm-34.1-13.78q2.08,0.27,4.53.45t4.9,0.27q2.36,0.09,4.22.14t3.58,0q-1.45-6-2.68-12.33t-2.31-12q-3.17,4.54-5,7.66t-3,5.67q-1.18,2.54-2.09,4.85T260.43,51.46Z"/><path class="cls-1" d="M311.85,10.38a8.6,8.6,0,0,1,2.68.5,14.18,14.18,0,0,1,5.49,3.4,7.59,7.59,0,0,1,1.72,2.54,3.5,3.5,0,0,1,.18,2.31,17.65,17.65,0,0,1-.73,2.77,81.1,81.1,0,0,0-1.9,9.07q-0.82,5.17-1.22,11t-0.41,12.15a124.46,124.46,0,0,0,.63,12.56q0.36,2.27.77,4.13a11.72,11.72,0,0,1,.32,3.22,3.14,3.14,0,0,1-.82,2.09,3.7,3.7,0,0,1-2.63.73,7.65,7.65,0,0,1-6.62-3.54,25.66,25.66,0,0,1-2.49-6.21q-1-3.76-1.81-8.21t-1.22-9.25q-0.45-4.81-.59-9.34t-0.09-8.52a57.31,57.31,0,0,1,.41-6.71q0.36-2.72,1-5.4A22.69,22.69,0,0,1,306,15a10.19,10.19,0,0,1,2.36-3.31A5,5,0,0,1,311.85,10.38Z"/></svg>