<svg id="Layer_1" data-name="Layer 1" xmlns="http://www.w3.org/2000/svg" xmlns:xlink="http://www.w3.org/1999/xlink" viewBox="0 0 152.64 119.08"><defs><style>.cls-1{fill:none;}.cls-2{fill:#e4483a;}.cls-3{fill:#fff;}.cls-4{clip-path:url(#clip-path);}</style><clipPath id="clip-path"><path id="_Clipping_Path_" data-name="&lt;Clipping Path&gt;" class="cls-1" d="M46.68,94.52H106c5.15,0,8.63-5.42,5.13-11L103.8,71.82a11.61,11.61,0,0,0-5.07-4.25,9,9,0,0,0-3.56-.83h-38a9,9,0,0,0-3.56.83,11.61,11.61,0,0,0-5.07,4.25L41.16,83.53"/></clipPath></defs><title>FeatureIcon</title><g id="_Group_" data-name="&lt;Group&gt;"><path class="cls-2" d="M109.09,97.45H43.64a9.09,9.09,0,0,1-8-4.62A9.46,9.46,0,0,1,36.28,83l8.1-12.91a14.28,14.28,0,0,1,6.25-5.26,11.46,11.46,0,0,1,4.54-1h42a11.46,11.46,0,0,1,4.54,1,14.27,14.27,0,0,1,6.25,5.26L116,83c3.09,5,2,8.47,1.09,10.13A9,9,0,0,1,109.09,97.45ZM55.17,66.81a8.45,8.45,0,0,0-3.33.78,11.37,11.37,0,0,0-4.92,4.11l-8.1,12.91a6.56,6.56,0,0,0-.54,6.76,6.09,6.09,0,0,0,5.36,3.07h65.45a6,6,0,0,0,5.39-2.75c1-1.87.67-4.38-1-7.09l-8.1-12.91a11.37,11.37,0,0,0-4.92-4.11,8.45,8.45,0,0,0-3.33-.78h-42Z"/><path class="cls-2" d="M109.44,64.53a7.25,7.25,0,1,1,7.25-7.25A7.26,7.26,0,0,1,109.44,64.53Zm0-11.51a4.25,4.25,0,1,0,4.25,4.25A4.26,4.26,0,0,0,109.44,53Z"/><path class="cls-2" d="M97.93,42.15a7.25,7.25,0,1,1,7.25-7.25A7.26,7.26,0,0,1,97.93,42.15Zm0-11.51a4.25,4.25,0,1,0,4.25,4.25A4.26,4.26,0,0,0,97.93,30.64Z"/><path class="cls-2" d="M64.68,39.05a7.25,7.25,0,1,1,7.25-7.25A7.26,7.26,0,0,1,64.68,39.05Zm0-11.51a4.25,4.25,0,1,0,4.25,4.25A4.26,4.26,0,0,0,64.68,27.55Z"/><path class="cls-2" d="M78.65,58.77a7.25,7.25,0,1,1,7.25-7.25A7.26,7.26,0,0,1,78.65,58.77Zm0-11.51a4.25,4.25,0,1,0,4.25,4.25A4.26,4.26,0,0,0,78.65,47.27Z"/><path class="cls-2" d="M47.66,59.9a7.25,7.25,0,1,1,7.25-7.25A7.26,7.26,0,0,1,47.66,59.9Zm0-11.51a4.25,4.25,0,1,0,4.25,4.25A4.26,4.26,0,0,0,47.66,48.39Z"/><circle id="_Path_" data-name="&lt;Path&gt;" class="cls-3" cx="64.68" cy="67.91" r="5.75"/><path class="cls-2" d="M64.68,75.16a7.25,7.25,0,1,1,7.25-7.25A7.26,7.26,0,0,1,64.68,75.16Zm0-11.51a4.25,4.25,0,1,0,4.25,4.25A4.26,4.26,0,0,0,64.68,63.65Z"/><g id="_Clip_Group_" data-name="&lt;Clip Group&gt;"><g class="cls-4"><path class="cls-2" d="M65.81,99.86a7.25,7.25,0,1,1,7.25-7.25A7.26,7.26,0,0,1,65.81,99.86Zm0-11.51a4.25,4.25,0,1,0,4.25,4.25A4.26,4.26,0,0,0,65.81,88.35Z"/><path class="cls-2" d="M90.16,103.21A7.25,7.25,0,1,1,97.41,96,7.26,7.26,0,0,1,90.16,103.21Zm0-11.51A4.25,4.25,0,1,0,94.41,96,4.26,4.26,0,0,0,90.16,91.7Z"/><path class="cls-2" d="M91.75,85.3A7.25,7.25,0,1,1,99,78,7.26,7.26,0,0,1,91.75,85.3Zm0-11.51A4.25,4.25,0,1,0,96,78,4.26,4.26,0,0,0,91.75,73.79Z"/></g></g></g></svg>