<svg id="Layer_1" data-name="Layer 1" xmlns="http://www.w3.org/2000/svg" viewBox="0 0 152.64 119.08"><defs><style>.cls-1{fill:#e4483a;}</style></defs><title>FeatureIcon</title><g id="_Group_" data-name="&lt;Group&gt;"><g id="_Group_2" data-name="&lt;Group&gt;"><path class="cls-1" d="M84,57.41H68.69a9.6,9.6,0,0,1-9.59-9.59V32.56A9.6,9.6,0,0,1,68.69,23H84a9.6,9.6,0,0,1,9.59,9.59V47.82A9.6,9.6,0,0,1,84,57.41ZM68.69,26a6.6,6.6,0,0,0-6.59,6.59V47.82a6.6,6.6,0,0,0,6.59,6.59H84a6.6,6.6,0,0,0,6.59-6.59V32.56A6.6,6.6,0,0,0,84,26H68.69Z"/><g id="_Group_3" data-name="&lt;Group&gt;"><path id="_Compound_Path_" data-name="&lt;Compound Path&gt;" class="cls-1" d="M79.92,34a4.08,4.08,0,0,0-1.32-.27c-1,0-1.52.58-1.52,2v1.07h2.35v2.59H77.08v9.93H73.79V39.34H72.12V36.9l1.68-.13v-1c0-2.62,1.21-4.63,4.36-4.63a6.56,6.56,0,0,1,2.37.45Z"/></g></g><g id="_Group_4" data-name="&lt;Group&gt;"><path class="cls-1" d="M115.21,96.11H99.94a9.6,9.6,0,0,1-9.59-9.59V71.26a9.6,9.6,0,0,1,9.59-9.59h15.26a9.6,9.6,0,0,1,9.59,9.59V86.52A9.6,9.6,0,0,1,115.21,96.11ZM99.94,64.67a6.6,6.6,0,0,0-6.59,6.59V86.52a6.6,6.6,0,0,0,6.59,6.59h15.26a6.6,6.6,0,0,0,6.59-6.59V71.26a6.6,6.6,0,0,0-6.59-6.59H99.94Z"/><g id="_Group_5" data-name="&lt;Group&gt;"><path id="_Compound_Path_2" data-name="&lt;Compound Path&gt;" class="cls-1" d="M98.58,75.76h1.35v5.63h2.74v1.13H98.58V75.76Z"/><path id="_Compound_Path_3" data-name="&lt;Compound Path&gt;" class="cls-1" d="M103.61,75.85a0.8,0.8,0,0,1,1.6,0A0.8,0.8,0,0,1,103.61,75.85Zm0.13,1.55h1.33v5.12h-1.33V77.41Z"/><path id="_Compound_Path_4" data-name="&lt;Compound Path&gt;" class="cls-1" d="M106.52,77.41h1.1l0.09,0.68h0a2.36,2.36,0,0,1,1.66-.8c1.11,0,1.58.77,1.58,2.06v3.19h-1.34v-3c0-.79-0.22-1.07-0.72-1.07a1.47,1.47,0,0,0-1.07.58v3.52h-1.33V77.41Z"/><path id="_Compound_Path_5" data-name="&lt;Compound Path&gt;" class="cls-1" d="M112.05,80a2.5,2.5,0,0,1,2.39-2.7c1.41,0,2.14,1,2.14,2.45a2.5,2.5,0,0,1-.06.61h-3.15a1.34,1.34,0,0,0,1.42,1.28,2.11,2.11,0,0,0,1.15-.36l0.46,0.82a3.23,3.23,0,0,1-1.79.57A2.48,2.48,0,0,1,112.05,80Zm3.37-.52a1,1,0,0,0-1-1.13,1.15,1.15,0,0,0-1.11,1.13h2.08Z"/></g></g><g id="_Group_6" data-name="&lt;Group&gt;"><path class="cls-1" d="M52.7,96.11H37.43a9.6,9.6,0,0,1-9.59-9.59V71.26a9.6,9.6,0,0,1,9.59-9.59H52.7a9.6,9.6,0,0,1,9.59,9.59V86.52A9.6,9.6,0,0,1,52.7,96.11ZM37.43,64.67a6.6,6.6,0,0,0-6.59,6.59V86.52a6.6,6.6,0,0,0,6.59,6.59H52.7a6.6,6.6,0,0,0,6.59-6.59V71.26a6.6,6.6,0,0,0-6.59-6.59H37.43Z"/><g id="_Group_7" data-name="&lt;Group&gt;"><path id="_Compound_Path_6" data-name="&lt;Compound Path&gt;" class="cls-1" d="M35.93,69.92h1.6l0.63,3.83c0.12,0.83.24,1.67,0.36,2.5h0c0.16-.84.33-1.69,0.5-2.5L40,69.92h1.34l0.91,3.83c0.17,0.81.33,1.65,0.5,2.5h0.05c0.12-.85.23-1.69,0.35-2.5l0.62-3.83h1.49l-1.45,7.85h-2l-0.88-3.88c-0.13-.62-0.24-1.22-0.34-1.81h0c-0.11.59-.21,1.2-0.34,1.81l-0.86,3.88H37.45Z"/><path id="_Compound_Path_7" data-name="&lt;Compound Path&gt;" class="cls-1" d="M45.9,74.81a2.91,2.91,0,0,1,2.77-3.13c1.63,0,2.48,1.2,2.48,2.84a2.92,2.92,0,0,1-.07.71H47.42a1.56,1.56,0,0,0,1.64,1.48,2.45,2.45,0,0,0,1.34-.41l0.53,1a3.75,3.75,0,0,1-2.08.66A2.88,2.88,0,0,1,45.9,74.81Zm3.91-.61a1.11,1.11,0,0,0-1.12-1.31,1.34,1.34,0,0,0-1.29,1.31h2.42Z"/><path id="_Compound_Path_8" data-name="&lt;Compound Path&gt;" class="cls-1" d="M33.32,84.08C33.32,81.49,35,80,37,80a3.21,3.21,0,0,1,2.3,1l-0.83,1A2,2,0,0,0,37,81.32c-1.19,0-2.08,1-2.08,2.7s0.81,2.74,2,2.74A2.18,2.18,0,0,0,38.59,86l0.83,1a3.17,3.17,0,0,1-2.5,1.16C34.93,88.12,33.32,86.7,33.32,84.08Z"/><path id="_Compound_Path_9" data-name="&lt;Compound Path&gt;" class="cls-1" d="M40.54,79.51h1.55v2.13L42,82.76a2.7,2.7,0,0,1,1.87-.87c1.28,0,1.83.89,1.83,2.39V88H44.17V84.46c0-.91-0.25-1.24-0.84-1.24a1.71,1.71,0,0,0-1.24.67V88H40.54V79.51Z"/><path id="_Compound_Path_10" data-name="&lt;Compound Path&gt;" class="cls-1" d="M47,86.36c0-1.27,1-1.94,3.41-2.2a0.93,0.93,0,0,0-1-1,3.35,3.35,0,0,0-1.63.56l-0.56-1a4.74,4.74,0,0,1,2.48-.78c1.51,0,2.28.9,2.28,2.62V88H50.73l-0.12-.64h0a2.79,2.79,0,0,1-1.79.78A1.69,1.69,0,0,1,47,86.36Zm3.41,0v-1.2c-1.44.19-1.93,0.58-1.93,1.11a0.67,0.67,0,0,0,.78.67A1.57,1.57,0,0,0,50.44,86.32Z"/><path id="_Compound_Path_11" data-name="&lt;Compound Path&gt;" class="cls-1" d="M53.61,85.89V83.26H52.77V82.11L53.68,82l0.18-1.59h1.3V82h1.46v1.23H55.17v2.63a0.8,0.8,0,0,0,.81,1,1.72,1.72,0,0,0,.58-0.13l0.26,1.13a3.84,3.84,0,0,1-1.25.22C54.15,88.12,53.61,87.23,53.61,85.89Z"/></g></g></g></svg>