<svg id="Layer_1" data-name="Layer 1" xmlns="http://www.w3.org/2000/svg" viewBox="0 0 152.64 119.08"><defs><style>.cls-1{fill:#e4483a;}</style></defs><title>FeatureIcon</title><g id="_Group_" data-name="&lt;Group&gt;"><polygon class="cls-1" points="124.51 97.17 26.63 97.17 26.63 33.23 29.63 33.23 29.63 94.17 124.51 94.17 124.51 97.17"/><polygon class="cls-1" points="29.23 96.69 27.03 94.65 52.13 67.57 61.61 72.84 74.49 56.88 82.3 60.59 94.94 44.67 103.15 48.66 115.04 32.35 117.46 34.11 104.09 52.46 95.79 48.42 83.16 64.33 75.34 60.6 62.36 76.69 52.73 71.34 29.23 96.69"/><polygon class="cls-1" points="115.45 43.54 114.89 35.32 106.36 38.41 105.34 35.59 117.61 31.14 118.44 43.34 115.45 43.54"/></g></svg>