<svg id="Layer_1" data-name="Layer 1" xmlns="http://www.w3.org/2000/svg" viewBox="0 0 152.64 119.08"><defs><style>.cls-1{fill:#e4483a;}</style></defs><title>FeatureIcon</title><g id="_Group_" data-name="&lt;Group&gt;"><path class="cls-1" d="M110.1,44.87H44a10.31,10.31,0,1,1,0-20.61h66.1A10.31,10.31,0,1,1,110.1,44.87ZM44,27.26a7.31,7.31,0,1,0,0,14.61h66.1a7.31,7.31,0,1,0,0-14.61H44Z"/><path class="cls-1" d="M64,94.82H26.76a10.31,10.31,0,1,1,0-20.61H64A10.31,10.31,0,1,1,64,94.82ZM26.76,77.21a7.31,7.31,0,1,0,0,14.61H64a7.31,7.31,0,1,0,0-14.61H26.76Z"/><path class="cls-1" d="M132.66,94.82H98V74.21h34.7V94.82Zm-31.7-3h28.7V77.21H101V91.82Z"/><g id="_Group_2" data-name="&lt;Group&gt;"><rect id="_Rectangle_" data-name="&lt;Rectangle&gt;" class="cls-1" x="60.04" y="53.37" width="2.37" height="13.78"/><rect id="_Rectangle_2" data-name="&lt;Rectangle&gt;" class="cls-1" x="54.24" y="53.37" width="2.37" height="13.78"/></g><g id="_Group_3" data-name="&lt;Group&gt;"><rect id="_Rectangle_3" data-name="&lt;Rectangle&gt;" class="cls-1" x="85.66" y="80.35" width="2.37" height="13.78" transform="translate(174.09 0.4) rotate(90)"/><rect id="_Rectangle_4" data-name="&lt;Rectangle&gt;" class="cls-1" x="85.66" y="74.56" width="2.37" height="13.78" transform="translate(168.29 -5.4) rotate(90)"/><rect id="_Rectangle_5" data-name="&lt;Rectangle&gt;" class="cls-1" x="86.25" y="77" width="1.19" height="15.03" transform="translate(195.84 137.48) rotate(161.7)"/></g></g></svg>