<svg id="Layer_1" data-name="Layer 1" xmlns="http://www.w3.org/2000/svg" viewBox="0 0 152.64 119.08"><defs><style>.cls-1{fill:#e4483a;}</style></defs><title>FeatureIcon</title><g id="_Group_" data-name="&lt;Group&gt;"><path class="cls-1" d="M99.93,40.22H37.22v-16H99.93v16Zm-59.71-3H96.93v-10H40.22v10Z"/><path class="cls-1" d="M115.13,69H68.38a8,8,0,0,1,0-16h46.75A8,8,0,0,1,115.13,69Zm-46.75-13a5,5,0,0,0,0,10h46.75a5,5,0,0,0,0-10H68.38Z"/><path class="cls-1" d="M77.12,97.82H30.37a8,8,0,0,1,0-16H77.12A8,8,0,0,1,77.12,97.82Zm-46.75-13a5,5,0,0,0,0,10H77.12a5,5,0,0,0,0-10H30.37Z"/><rect class="cls-1" x="81.98" y="37.04" width="3" height="19.2" transform="translate(-11.76 55.23) rotate(-34.34)"/><rect class="cls-1" x="56.28" y="73.94" width="27.83" height="3" transform="translate(-30.44 53.27) rotate(-34.64)"/><path class="cls-1" d="M108.35,99.93l-0.83-.57c-1-.68-9.64-6.81-10.54-12.39-0.54-3.39.91-6.66,3.54-8,1.2-.59,4.22-1.5,7.91,1.72,4.12-3.21,7.19-2,8.39-1.33,2.56,1.51,3.76,4.9,2.92,8.24h0c-1.44,5.72-10.17,11.51-10.54,11.75Zm-5.29-18.51a2.71,2.71,0,0,0-1.21.28c-1.46.72-2.25,2.69-1.91,4.79,0.53,3.31,5.68,7.74,8.45,9.8,2.65-1.89,7.58-6,8.44-9.4h0c0.51-2-.14-4.1-1.54-4.92s-3.66-.21-5.9,1.87l-1.09,1-1-1.08C105.82,82.23,104.34,81.41,103.06,81.41Z"/></g></svg>