<svg id="Layer_1" data-name="Layer 1" xmlns="http://www.w3.org/2000/svg" xmlns:xlink="http://www.w3.org/1999/xlink" viewBox="0 0 621 1104"><defs><style>.cls-1,.cls-11,.cls-28,.cls-32{fill:none;}.cls-2,.cls-34{fill:#fff;}.cls-3{clip-path:url(#clip-path);}.cls-25,.cls-29,.cls-31,.cls-4{fill:#231916;}.cls-5{fill:#064248;}.cls-6{fill:#20b6c4;}.cls-7{fill:#1c8793;}.cls-8{fill:#206f79;}.cls-9{clip-path:url(#clip-path-2);}.cls-10{fill:#aedce3;}.cls-11{stroke:#656464;stroke-width:2px;}.cls-11,.cls-28,.cls-32{stroke-miterlimit:10;}.cls-12,.cls-23{fill:#2878bd;}.cls-13{fill:#efeeed;}.cls-14,.cls-34{font-size:32.84px;}.cls-14{fill:#595857;}.cls-14,.cls-23,.cls-25,.cls-27,.cls-29,.cls-34{font-family:Noto Sans CJK TC;}.cls-15{letter-spacing:-8px;}.cls-16{fill:#f7f7f7;}.cls-17{clip-path:url(#clip-path-3);}.cls-18{clip-path:url(#clip-path-4);}.cls-19{clip-path:url(#clip-path-5);}.cls-20{clip-path:url(#clip-path-6);}.cls-21{clip-path:url(#clip-path-7);}.cls-22{clip-path:url(#clip-path-8);}.cls-23{font-size:27.97px;}.cls-24{fill:#888;}.cls-25{font-size:18.97px;}.cls-26{letter-spacing:-1px;}.cls-27{font-size:18.24px;fill:#b0b0b1;}.cls-28{stroke:#c8c9ca;stroke-width:6px;}.cls-29,.cls-31{font-size:20.29px;}.cls-30,.cls-31{font-family:Helvetica Neue;}.cls-30{font-weight:700;}.cls-32{stroke:#231916;stroke-width:5px;}.cls-33{fill:#74b670;}.cls-35{letter-spacing:-4px;}.cls-36{letter-spacing:8px;}.cls-37{letter-spacing:-16px;}.cls-38{white-space:pre;}.cls-39{fill:#9a9a9a;}</style><clipPath id="clip-path"><circle id="_Clipping_Path_" data-name="&lt;Clipping Path&gt;" class="cls-1" cx="45.09" cy="148.98" r="29.09"/></clipPath><clipPath id="clip-path-2"><path id="_Clipping_Path_2" data-name="&lt;Clipping Path&gt;" class="cls-1" d="M62.59,150.08a2.57,2.57,0,0,1-.7,1.45,6.9,6.9,0,0,1-4.15,1.22c-1.54.08-1.79-.8-3.29-1.06s-2.36.6-4.05,0.06a18.55,18.55,0,0,1-5.76-3.1,1.64,1.64,0,0,1-.77-1.66c0.14-2.57,1.29-20.19,10.83-19.53C62.79,128,63.87,137.92,62.59,150.08Z"/></clipPath><clipPath id="clip-path-3"><circle id="_Clipping_Path_3" data-name="&lt;Clipping Path&gt;" class="cls-1" cx="45.09" cy="965.69" r="29.09"/></clipPath><clipPath id="clip-path-4"><path id="_Clipping_Path_4" data-name="&lt;Clipping Path&gt;" class="cls-1" d="M62.59,966.79a2.57,2.57,0,0,1-.7,1.45,6.9,6.9,0,0,1-4.15,1.22c-1.54.08-1.79-.8-3.29-1.06s-2.36.6-4.05,0.06a18.55,18.55,0,0,1-5.76-3.1,1.64,1.64,0,0,1-.77-1.66c0.14-2.57,1.29-20.19,10.83-19.53C62.79,944.74,63.87,954.63,62.59,966.79Z"/></clipPath><clipPath id="clip-path-5"><circle id="_Clipping_Path_5" data-name="&lt;Clipping Path&gt;" class="cls-1" cx="45.09" cy="359.82" r="29.09"/></clipPath><clipPath id="clip-path-6"><path id="_Clipping_Path_6" data-name="&lt;Clipping Path&gt;" class="cls-1" d="M62.59,360.93a2.57,2.57,0,0,1-.7,1.45,6.9,6.9,0,0,1-4.15,1.22c-1.54.08-1.79-.8-3.29-1.06s-2.36.6-4.05,0.06a18.55,18.55,0,0,1-5.76-3.1,1.64,1.64,0,0,1-.77-1.66c0.14-2.57,1.29-20.19,10.83-19.53C62.79,338.87,63.87,348.77,62.59,360.93Z"/></clipPath><clipPath id="clip-path-7"><circle id="_Clipping_Path_7" data-name="&lt;Clipping Path&gt;" class="cls-1" cx="45.09" cy="605.65" r="29.09"/></clipPath><clipPath id="clip-path-8"><path id="_Clipping_Path_8" data-name="&lt;Clipping Path&gt;" class="cls-1" d="M62.59,606.76a2.57,2.57,0,0,1-.7,1.45,6.9,6.9,0,0,1-4.15,1.22c-1.54.08-1.79-.8-3.29-1.06s-2.36.6-4.05,0.06a18.55,18.55,0,0,1-5.76-3.1,1.64,1.64,0,0,1-.77-1.66c0.14-2.57,1.29-20.19,10.83-19.53C62.79,584.7,63.87,594.6,62.59,606.76Z"/></clipPath></defs><title>Messenger</title><rect class="cls-2" x="-0.17" y="-0.64" width="621.17" height="1104.64"/><g id="_Group_" data-name="&lt;Group&gt;"><g id="_Clip_Group_" data-name="&lt;Clip Group&gt;"><g class="cls-3"><g id="_Group_2" data-name="&lt;Group&gt;"><rect id="_Rectangle_" data-name="&lt;Rectangle&gt;" class="cls-2" x="15.16" y="118.8" width="60" height="60.13" rx="5.33" ry="5.33"/><g id="_Group_3" data-name="&lt;Group&gt;"><path id="_Compound_Path_" data-name="&lt;Compound Path&gt;" class="cls-4" d="M27,160.21H26.48l-0.61-2.46v3.93H25.39v-4.39h0.87l0.5,2.24,0.51-2.24h0.85v4.39H27.62v-3.93Z"/><path id="_Compound_Path_2" data-name="&lt;Compound Path&gt;" class="cls-4" d="M29.52,161.21V159H29.06v-0.47h1v0.17a0.77,0.77,0,0,1,.5-0.17h0.65V159H30.46a0.36,0.36,0,0,0-.3.13,0.46,0.46,0,0,0-.11.26v1.77h0.68v0.47H29.06v-0.47h0.46Z"/><path id="_Compound_Path_3" data-name="&lt;Compound Path&gt;" class="cls-4" d="M33.83,161.05v0.63H33.2v-0.63h0.63Z"/><path id="_Compound_Path_4" data-name="&lt;Compound Path&gt;" class="cls-4" d="M26.45,167.61v-2l-1.12-2.35h0.6l0.83,1.82,0.83-1.82h0.57L27,165.58v2H26.45Z"/><path id="_Compound_Path_5" data-name="&lt;Compound Path&gt;" class="cls-4" d="M31,167.38a1.16,1.16,0,0,1-.81.24H30a1.16,1.16,0,0,1-.81-0.24,1,1,0,0,1-.26-0.76v-1.13a1,1,0,0,1,.26-0.76,1.16,1.16,0,0,1,.81-0.24h0.21a1.16,1.16,0,0,1,.81.24,1,1,0,0,1,.26.76v1.13A1,1,0,0,1,31,167.38Zm-0.39-2.32a0.51,0.51,0,0,0-.35-0.11H30a0.51,0.51,0,0,0-.35.11,0.38,0.38,0,0,0-.12.3v1.38a0.38,0.38,0,0,0,.12.3,0.51,0.51,0,0,0,.35.11h0.33a0.51,0.51,0,0,0,.35-0.11,0.38,0.38,0,0,0,.12-0.3v-1.38A0.38,0.38,0,0,0,30.64,165.06Z"/><path id="_Compound_Path_6" data-name="&lt;Compound Path&gt;" class="cls-4" d="M32.83,167.38a1,1,0,0,1-.26-0.77v-1.13a1,1,0,0,1,.26-0.76,1.16,1.16,0,0,1,.81-0.24h0.81V165H33.58a0.51,0.51,0,0,0-.35.11,0.38,0.38,0,0,0-.12.3v1.38a0.38,0.38,0,0,0,.12.3,0.51,0.51,0,0,0,.35.11h0.87v0.47H33.64A1.17,1.17,0,0,1,32.83,167.38Z"/><path id="_Compound_Path_7" data-name="&lt;Compound Path&gt;" class="cls-4" d="M36.64,167.41a0.83,0.83,0,0,1-.17-0.55V165h-0.6v-0.47h0.6v-0.75H37v0.75h0.91V165H37v1.94a0.24,0.24,0,0,0,.07.19,0.33,0.33,0,0,0,.21.06h0.63v0.47H37.13A0.59,0.59,0,0,1,36.64,167.41Z"/><path id="_Compound_Path_8" data-name="&lt;Compound Path&gt;" class="cls-4" d="M41.19,167.38a1.16,1.16,0,0,1-.81.24H40.17a1.16,1.16,0,0,1-.81-0.24,1,1,0,0,1-.26-0.76v-1.13a1,1,0,0,1,.26-0.76,1.16,1.16,0,0,1,.81-0.24h0.21a1.16,1.16,0,0,1,.81.24,1,1,0,0,1,.26.76v1.13A1,1,0,0,1,41.19,167.38Zm-0.39-2.32a0.51,0.51,0,0,0-.35-0.11H40.11a0.51,0.51,0,0,0-.35.11,0.38,0.38,0,0,0-.12.3v1.38a0.38,0.38,0,0,0,.12.3,0.51,0.51,0,0,0,.35.11h0.33a0.51,0.51,0,0,0,.35-0.11,0.38,0.38,0,0,0,.12-0.3v-1.38A0.38,0.38,0,0,0,40.79,165.06Z"/><path id="_Compound_Path_9" data-name="&lt;Compound Path&gt;" class="cls-4" d="M43.49,167.46a0.63,0.63,0,0,1-.16-0.48V163.7H42.41v-0.47h1.45V167a0.18,0.18,0,0,0,.05.14,0.26,0.26,0,0,0,.17,0h0.83v0.47H43.86A0.53,0.53,0,0,1,43.49,167.46Z"/></g><g id="_Group_4" data-name="&lt;Group&gt;"><g id="_Group_5" data-name="&lt;Group&gt;"><path id="_Path_" data-name="&lt;Path&gt;" class="cls-5" d="M59.9,165.67a2.14,2.14,0,0,1-.07,1.18c-0.23.4-.06-0.55-0.28-0.88S59.81,165.44,59.9,165.67Z"/><path id="_Path_2" data-name="&lt;Path&gt;" class="cls-5" d="M59.36,165.82a2.14,2.14,0,0,1-.42,1.11c-0.34.32,0.11-.54,0-0.93S59.34,165.57,59.36,165.82Z"/><path id="_Path_3" data-name="&lt;Path&gt;" class="cls-5" d="M58.61,165.72a2.14,2.14,0,0,1-.49,1.08c-0.36.29,0.15-.53,0.06-0.92S58.61,165.48,58.61,165.72Z"/><path id="_Path_4" data-name="&lt;Path&gt;" class="cls-5" d="M59.94,164.95a2.33,2.33,0,0,1,.69,1c0.06,0.47-.39-0.43-0.79-0.58S59.72,164.81,59.94,164.95Z"/><path id="_Path_5" data-name="&lt;Path&gt;" class="cls-6" d="M56.12,162.69s-0.36,4.07-.33,5.12c0,0.77,3.19.52,2.19,1.9-0.8,1.11-3-.51-3-1.35s0.21-5.92.21-5.92Z"/><path id="_Path_6" data-name="&lt;Path&gt;" class="cls-6" d="M51.14,163s-0.08,4.09-.23,5.13-3.08,2-1.51,2.72,2.22-1.35,2.3-2.07,0.44-5.91.44-5.91Z"/><path id="_Path_7" data-name="&lt;Path&gt;" class="cls-6" d="M50,155.35c-4,2.2-8.3-1.88-9.35-1.73-0.89.12-2.43,1.39-1.56,2,5.16,3.38,10.79,2.6,11.87.68C52.23,153.95,50,155.35,50,155.35Z"/><path id="_Path_8" data-name="&lt;Path&gt;" class="cls-6" d="M56.22,155.65c1.5,1.62,3.35,6.45,3.95,9,0.43,1.81-2.21,2-2.39.56-0.24-1.91-1.16-7.13-2.45-9S56.22,155.65,56.22,155.65Z"/><path id="_Path_9" data-name="&lt;Path&gt;" class="cls-6" d="M50.63,156a9.31,9.31,0,0,0-1.28,7.36c0.92,4.16,7.19,2.86,7.91.72,1-2.82-.54-7.2-1.11-8.13C55.1,154.23,52,154.12,50.63,156Z"/><path id="_Path_10" data-name="&lt;Path&gt;" class="cls-7" d="M51.41,156.15c-0.44,1.16-1.48,3.83-.41,6.5a3,3,0,0,0,5.54,0c0.76-2.37-.86-6.46-0.86-6.46A3.22,3.22,0,0,0,51.41,156.15Z"/><path id="_Path_11" data-name="&lt;Path&gt;" class="cls-5" d="M39.06,155.21a2.14,2.14,0,0,1-.69-1c-0.07-.46.39,0.39,0.77,0.51S39.28,155.33,39.06,155.21Z"/><path id="_Path_12" data-name="&lt;Path&gt;" class="cls-5" d="M39.61,154.53a2.14,2.14,0,0,1-.69-1c-0.07-.46.39,0.39,0.77,0.51S39.82,154.65,39.61,154.53Z"/><path id="_Path_13" data-name="&lt;Path&gt;" class="cls-5" d="M40.23,154.06a2.14,2.14,0,0,1-.46-1.09c0-.46.29,0.47,0.64,0.67S40.42,154.23,40.23,154.06Z"/><path id="_Path_14" data-name="&lt;Path&gt;" class="cls-5" d="M41.61,154.31a2.12,2.12,0,0,0-.46-1.1c-0.36-.3.13,0.54,0,0.94S41.6,154.57,41.61,154.31Z"/></g><g id="_Group_6" data-name="&lt;Group&gt;"><g id="_Group_7" data-name="&lt;Group&gt;"><path id="_Path_15" data-name="&lt;Path&gt;" class="cls-6" d="M44.49,146c-0.7-.17-7.09-2.12-6.2-1,1.09,1.41,5.73,4.6,8.08,5.81C51.91,153.71,45.13,146.85,44.49,146Z"/><path id="_Path_16" data-name="&lt;Path&gt;" class="cls-8" d="M45.1,148.22c-1.92-1.43-7.7-4.34-6.82-3.19a25,25,0,0,0,6.37,4.83C50.08,152.94,45.75,149.07,45.1,148.22Z"/><path id="_Path_17" data-name="&lt;Path&gt;" class="cls-6" d="M62.59,148.84s6.14-.62,5,0.37c-1.31,1.11-6.12,3.13-8.4,3.53s0.69-4.06.69-4.06Z"/><path id="_Path_18" data-name="&lt;Path&gt;" class="cls-8" d="M61.15,151.17s7.58-3,6.42-2A23.55,23.55,0,0,1,59.8,153c-2.14.38,0-3.88,0-3.88Z"/><path id="_Path_19" data-name="&lt;Path&gt;" class="cls-7" d="M62.45,150.57c-4.8,9.81-17.14,6.63-18.35-3.36Z"/></g><path id="_Path_20" data-name="&lt;Path&gt;" class="cls-5" d="M45.31,148.25s3.5,5.07,8.49,5.66,8.49-3.26,8.49-3.26Z"/><g id="_Clip_Group_2" data-name="&lt;Clip Group&gt;"><g class="cls-9"><path id="_Path_21" data-name="&lt;Path&gt;" class="cls-6" d="M64.49,150a3.11,3.11,0,0,1-.85,1.76c-1.84,1.58-11.19,3.68-20.85-3.48a2,2,0,0,1-.94-2C42,143.13,43.59,120,55.09,121.1,65,122.05,66,135.27,64.49,150Z"/></g></g><path id="_Path_22" data-name="&lt;Path&gt;" class="cls-10" d="M48.79,140.9c0.95-1.91,2.85-2.27,4.32.48a12.27,12.27,0,0,1,1.27,6.69c-0.25,1.79-1.6,2.43-3.51,2-2.53-.54-3.39-1.55-3.47-3.49A12.27,12.27,0,0,1,48.79,140.9Z"/><path id="_Path_23" data-name="&lt;Path&gt;" class="cls-10" d="M62,142.38c-0.49-2.08-2.37-2.77-4.34-.34a12.2,12.2,0,0,0-2.37,6.43c-0.09,1.8,1,2.59,2.93,2.55,2.58-.06,3.62-0.84,3.92-2.76A16.09,16.09,0,0,0,62,142.38Z"/><g id="_Group_8" data-name="&lt;Group&gt;"><circle id="_Path_24" data-name="&lt;Path&gt;" class="cls-6" cx="50.68" cy="145.33" r="2.5" transform="translate(-100.87 172.16) rotate(-80.82)"/><circle id="_Path_25" data-name="&lt;Path&gt;" class="cls-4" cx="50.68" cy="145.33" r="2.27" transform="translate(-100.87 172.16) rotate(-80.82)"/><circle id="_Path_26" data-name="&lt;Path&gt;" class="cls-2" cx="51.72" cy="144.45" r="0.46" transform="translate(-97 182.17) rotate(-84.53)"/></g><g id="_Group_9" data-name="&lt;Group&gt;"><circle id="_Path_27" data-name="&lt;Path&gt;" class="cls-6" cx="58.75" cy="146.56" r="2.5" transform="translate(-95.31 181.16) rotate(-80.82)"/><circle id="_Path_28" data-name="&lt;Path&gt;" class="cls-4" cx="58.75" cy="146.56" r="2.27" transform="translate(-95.31 181.16) rotate(-80.82)"/><circle id="_Path_29" data-name="&lt;Path&gt;" class="cls-2" cx="59.79" cy="145.68" r="0.46" transform="translate(-90.92 191.31) rotate(-84.53)"/></g></g></g></g></g></g><circle id="_Path_30" data-name="&lt;Path&gt;" class="cls-11" cx="45.09" cy="148.98" r="29.09"/><circle id="_Path_31" data-name="&lt;Path&gt;" class="cls-2" cx="66.77" cy="170.19" r="12.85"/><circle id="_Path_32" data-name="&lt;Path&gt;" class="cls-12" cx="66.77" cy="170.19" r="9.45"/><polygon id="_Path_33" data-name="&lt;Path&gt;" class="cls-2" points="60.46 172.57 65.55 167.76 68.39 170.19 73.26 167.76 68.51 173.26 64.97 170.51 60.46 172.57"/></g><g id="_Group_10" data-name="&lt;Group&gt;"><rect id="_Rectangle_2" data-name="&lt;Rectangle&gt;" class="cls-13" x="86.99" y="65.6" width="425.37" height="113.92" rx="27.64" ry="27.64"/><text class="cls-14" transform="translate(110.05 106.5)">感謝撥空拜訪優<tspan class="cls-15" x="229.86" y="0">拓，</tspan><tspan x="279.11" y="0"></tspan><tspan x="0" y="48.46">一同探索人機合作的未</tspan><tspan class="cls-15" x="328.37" y="48.46">來。</tspan></text></g><rect id="_Rectangle_3" data-name="&lt;Rectangle&gt;" class="cls-16" x="-0.17" y="-0.64" width="620.23" height="106.84"/><g id="_Group_11" data-name="&lt;Group&gt;"><g id="_Clip_Group_3" data-name="&lt;Clip Group&gt;"><g class="cls-17"><g id="_Group_12" data-name="&lt;Group&gt;"><rect id="_Rectangle_4" data-name="&lt;Rectangle&gt;" class="cls-2" x="15.16" y="935.51" width="60" height="60.13" rx="5.33" ry="5.33"/><g id="_Group_13" data-name="&lt;Group&gt;"><path id="_Compound_Path_10" data-name="&lt;Compound Path&gt;" class="cls-4" d="M27,976.92H26.48l-0.61-2.46v3.93H25.39V974h0.87l0.5,2.24L27.27,974h0.85v4.39H27.62v-3.93Z"/><path id="_Compound_Path_11" data-name="&lt;Compound Path&gt;" class="cls-4" d="M29.52,977.92v-2.19H29.06v-0.47h1v0.17a0.77,0.77,0,0,1,.5-0.17h0.65v0.5H30.46a0.36,0.36,0,0,0-.3.13,0.46,0.46,0,0,0-.11.26v1.77h0.68v0.47H29.06v-0.47h0.46Z"/><path id="_Compound_Path_12" data-name="&lt;Compound Path&gt;" class="cls-4" d="M33.83,977.76v0.63H33.2v-0.63h0.63Z"/><path id="_Compound_Path_13" data-name="&lt;Compound Path&gt;" class="cls-4" d="M26.45,984.33v-2l-1.12-2.35h0.6l0.83,1.82,0.83-1.82h0.57L27,982.29v2H26.45Z"/><path id="_Compound_Path_14" data-name="&lt;Compound Path&gt;" class="cls-4" d="M31,984.09a1.16,1.16,0,0,1-.81.24H30a1.16,1.16,0,0,1-.81-0.24,1,1,0,0,1-.26-0.76V982.2a1,1,0,0,1,.26-0.76,1.16,1.16,0,0,1,.81-0.24h0.21a1.16,1.16,0,0,1,.81.24,1,1,0,0,1,.26.76v1.13A1,1,0,0,1,31,984.09Zm-0.39-2.32a0.51,0.51,0,0,0-.35-0.11H30a0.51,0.51,0,0,0-.35.11,0.38,0.38,0,0,0-.12.3v1.38a0.38,0.38,0,0,0,.12.3,0.51,0.51,0,0,0,.35.11h0.33a0.51,0.51,0,0,0,.35-0.11,0.38,0.38,0,0,0,.12-0.3v-1.38A0.38,0.38,0,0,0,30.64,981.77Z"/><path id="_Compound_Path_15" data-name="&lt;Compound Path&gt;" class="cls-4" d="M32.83,984.09a1,1,0,0,1-.26-0.77V982.2a1,1,0,0,1,.26-0.76,1.16,1.16,0,0,1,.81-0.24h0.81v0.47H33.58a0.51,0.51,0,0,0-.35.11,0.38,0.38,0,0,0-.12.3v1.38a0.38,0.38,0,0,0,.12.3,0.51,0.51,0,0,0,.35.11h0.87v0.47H33.64A1.17,1.17,0,0,1,32.83,984.09Z"/><path id="_Compound_Path_16" data-name="&lt;Compound Path&gt;" class="cls-4" d="M36.64,984.12a0.83,0.83,0,0,1-.17-0.55v-1.91h-0.6v-0.47h0.6v-0.75H37v0.75h0.91v0.47H37v1.94a0.24,0.24,0,0,0,.07.19,0.33,0.33,0,0,0,.21.06h0.63v0.47H37.13A0.59,0.59,0,0,1,36.64,984.12Z"/><path id="_Compound_Path_17" data-name="&lt;Compound Path&gt;" class="cls-4" d="M41.19,984.09a1.16,1.16,0,0,1-.81.24H40.17a1.16,1.16,0,0,1-.81-0.24,1,1,0,0,1-.26-0.76V982.2a1,1,0,0,1,.26-0.76,1.16,1.16,0,0,1,.81-0.24h0.21a1.16,1.16,0,0,1,.81.24,1,1,0,0,1,.26.76v1.13A1,1,0,0,1,41.19,984.09Zm-0.39-2.32a0.51,0.51,0,0,0-.35-0.11H40.11a0.51,0.51,0,0,0-.35.11,0.38,0.38,0,0,0-.12.3v1.38a0.38,0.38,0,0,0,.12.3,0.51,0.51,0,0,0,.35.11h0.33a0.51,0.51,0,0,0,.35-0.11,0.38,0.38,0,0,0,.12-0.3v-1.38A0.38,0.38,0,0,0,40.79,981.77Z"/><path id="_Compound_Path_18" data-name="&lt;Compound Path&gt;" class="cls-4" d="M43.49,984.17a0.63,0.63,0,0,1-.16-0.48v-3.29H42.41v-0.47h1.45v3.73a0.18,0.18,0,0,0,.05.14,0.26,0.26,0,0,0,.17,0h0.83v0.47H43.86A0.53,0.53,0,0,1,43.49,984.17Z"/></g><g id="_Group_14" data-name="&lt;Group&gt;"><g id="_Group_15" data-name="&lt;Group&gt;"><path id="_Path_34" data-name="&lt;Path&gt;" class="cls-5" d="M59.9,982.38a2.14,2.14,0,0,1-.07,1.18c-0.23.4-.06-0.55-0.28-0.88S59.81,982.15,59.9,982.38Z"/><path id="_Path_35" data-name="&lt;Path&gt;" class="cls-5" d="M59.36,982.53a2.14,2.14,0,0,1-.42,1.11c-0.34.32,0.11-.54,0-0.93S59.34,982.28,59.36,982.53Z"/><path id="_Path_36" data-name="&lt;Path&gt;" class="cls-5" d="M58.61,982.43a2.14,2.14,0,0,1-.49,1.08c-0.36.29,0.15-.53,0.06-0.92S58.61,982.19,58.61,982.43Z"/><path id="_Path_37" data-name="&lt;Path&gt;" class="cls-5" d="M59.94,981.66a2.33,2.33,0,0,1,.69,1c0.06,0.47-.39-0.43-0.79-0.58S59.72,981.52,59.94,981.66Z"/><path id="_Path_38" data-name="&lt;Path&gt;" class="cls-6" d="M56.12,979.4s-0.36,4.07-.33,5.12c0,0.77,3.19.52,2.19,1.9-0.8,1.11-3-.51-3-1.35s0.21-5.92.21-5.92Z"/><path id="_Path_39" data-name="&lt;Path&gt;" class="cls-6" d="M51.14,979.75s-0.08,4.09-.23,5.13-3.08,2-1.51,2.72,2.22-1.35,2.3-2.07,0.44-5.91.44-5.91Z"/><path id="_Path_40" data-name="&lt;Path&gt;" class="cls-6" d="M50,972.06c-4,2.2-8.3-1.88-9.35-1.73-0.89.12-2.43,1.39-1.56,2,5.16,3.38,10.79,2.6,11.87.68C52.23,970.66,50,972.06,50,972.06Z"/><path id="_Path_41" data-name="&lt;Path&gt;" class="cls-6" d="M56.22,972.36c1.5,1.62,3.35,6.45,3.95,9,0.43,1.81-2.21,2-2.39.56-0.24-1.91-1.16-7.13-2.45-9S56.22,972.36,56.22,972.36Z"/><path id="_Path_42" data-name="&lt;Path&gt;" class="cls-6" d="M50.63,972.68A9.31,9.31,0,0,0,49.35,980c0.92,4.16,7.19,2.86,7.91.72,1-2.82-.54-7.2-1.11-8.13C55.1,970.94,52,970.83,50.63,972.68Z"/><path id="_Path_43" data-name="&lt;Path&gt;" class="cls-7" d="M51.41,972.86c-0.44,1.16-1.48,3.83-.41,6.5a3,3,0,0,0,5.54,0c0.76-2.37-.86-6.46-0.86-6.46A3.22,3.22,0,0,0,51.41,972.86Z"/><path id="_Path_44" data-name="&lt;Path&gt;" class="cls-5" d="M39.06,971.92a2.14,2.14,0,0,1-.69-1c-0.07-.46.39,0.39,0.77,0.51S39.28,972,39.06,971.92Z"/><path id="_Path_45" data-name="&lt;Path&gt;" class="cls-5" d="M39.61,971.24a2.14,2.14,0,0,1-.69-1c-0.07-.46.39,0.39,0.77,0.51S39.82,971.36,39.61,971.24Z"/><path id="_Path_46" data-name="&lt;Path&gt;" class="cls-5" d="M40.23,970.77a2.14,2.14,0,0,1-.46-1.09c0-.46.29,0.47,0.64,0.67S40.42,970.94,40.23,970.77Z"/><path id="_Path_47" data-name="&lt;Path&gt;" class="cls-5" d="M41.61,971a2.12,2.12,0,0,0-.46-1.1c-0.36-.3.13,0.54,0,0.94S41.6,971.28,41.61,971Z"/></g><g id="_Group_16" data-name="&lt;Group&gt;"><g id="_Group_17" data-name="&lt;Group&gt;"><path id="_Path_48" data-name="&lt;Path&gt;" class="cls-6" d="M44.49,962.71c-0.7-.17-7.09-2.12-6.2-1,1.09,1.41,5.73,4.6,8.08,5.81C51.91,970.42,45.13,963.57,44.49,962.71Z"/><path id="_Path_49" data-name="&lt;Path&gt;" class="cls-8" d="M45.1,964.93c-1.92-1.43-7.7-4.34-6.82-3.19a25,25,0,0,0,6.37,4.83C50.08,969.65,45.75,965.79,45.1,964.93Z"/><path id="_Path_50" data-name="&lt;Path&gt;" class="cls-6" d="M62.59,965.55s6.14-.62,5,0.37c-1.31,1.11-6.12,3.13-8.4,3.53s0.69-4.06.69-4.06Z"/><path id="_Path_51" data-name="&lt;Path&gt;" class="cls-8" d="M61.15,967.88s7.58-3,6.42-2a23.55,23.55,0,0,1-7.77,3.78c-2.14.38,0-3.88,0-3.88Z"/><path id="_Path_52" data-name="&lt;Path&gt;" class="cls-7" d="M62.45,967.28c-4.8,9.81-17.14,6.63-18.35-3.36Z"/></g><path id="_Path_53" data-name="&lt;Path&gt;" class="cls-5" d="M45.31,965s3.5,5.07,8.49,5.66,8.49-3.26,8.49-3.26Z"/><g id="_Clip_Group_4" data-name="&lt;Clip Group&gt;"><g class="cls-18"><path id="_Path_54" data-name="&lt;Path&gt;" class="cls-6" d="M64.49,966.68a3.11,3.11,0,0,1-.85,1.76C61.81,970,52.46,972.12,42.8,965a2,2,0,0,1-.94-2c0.16-3.11,1.73-26.25,13.22-25.14C65,938.76,66,952,64.49,966.68Z"/></g></g><path id="_Path_55" data-name="&lt;Path&gt;" class="cls-10" d="M48.79,957.61c0.95-1.91,2.85-2.27,4.32.48a12.27,12.27,0,0,1,1.27,6.69c-0.25,1.79-1.6,2.43-3.51,2-2.53-.54-3.39-1.55-3.47-3.49A12.27,12.27,0,0,1,48.79,957.61Z"/><path id="_Path_56" data-name="&lt;Path&gt;" class="cls-10" d="M62,959.09c-0.49-2.08-2.37-2.77-4.34-.34a12.2,12.2,0,0,0-2.37,6.43c-0.09,1.8,1,2.59,2.93,2.55,2.58-.06,3.62-0.84,3.92-2.76A16.09,16.09,0,0,0,62,959.09Z"/><g id="_Group_18" data-name="&lt;Group&gt;"><circle id="_Path_57" data-name="&lt;Path&gt;" class="cls-6" cx="50.68" cy="962.04" r="2.5" transform="translate(-907.12 858.52) rotate(-80.82)"/><circle id="_Path_58" data-name="&lt;Path&gt;" class="cls-4" cx="50.68" cy="962.04" r="2.27" transform="translate(-907.12 858.52) rotate(-80.82)"/><circle id="_Path_59" data-name="&lt;Path&gt;" class="cls-2" cx="51.72" cy="961.16" r="0.46" transform="translate(-909.99 921.02) rotate(-84.53)"/></g><g id="_Group_19" data-name="&lt;Group&gt;"><circle id="_Path_60" data-name="&lt;Path&gt;" class="cls-6" cx="58.75" cy="963.27" r="2.5" transform="translate(-901.55 867.52) rotate(-80.82)"/><circle id="_Path_61" data-name="&lt;Path&gt;" class="cls-4" cx="58.75" cy="963.27" r="2.27" transform="translate(-901.55 867.52) rotate(-80.82)"/><circle id="_Path_62" data-name="&lt;Path&gt;" class="cls-2" cx="59.79" cy="962.39" r="0.46" transform="translate(-903.92 930.17) rotate(-84.53)"/></g></g></g></g></g></g><circle id="_Path_63" data-name="&lt;Path&gt;" class="cls-11" cx="45.09" cy="965.69" r="29.09"/><circle id="_Path_64" data-name="&lt;Path&gt;" class="cls-2" cx="66.77" cy="986.91" r="12.85"/><circle id="_Path_65" data-name="&lt;Path&gt;" class="cls-12" cx="66.77" cy="986.91" r="9.45"/><polygon id="_Path_66" data-name="&lt;Path&gt;" class="cls-2" points="60.46 989.28 65.55 984.47 68.39 986.9 73.26 984.47 68.51 989.98 64.97 987.23 60.46 989.28"/></g><g id="_Group_20" data-name="&lt;Group&gt;"><g id="_Clip_Group_5" data-name="&lt;Clip Group&gt;"><g class="cls-19"><g id="_Group_21" data-name="&lt;Group&gt;"><rect id="_Rectangle_5" data-name="&lt;Rectangle&gt;" class="cls-2" x="15.16" y="329.64" width="60" height="60.13" rx="5.33" ry="5.33"/><g id="_Group_22" data-name="&lt;Group&gt;"><path id="_Compound_Path_19" data-name="&lt;Compound Path&gt;" class="cls-4" d="M27,371.05H26.48l-0.61-2.46v3.93H25.39v-4.39h0.87l0.5,2.24,0.51-2.24h0.85v4.39H27.62v-3.93Z"/><path id="_Compound_Path_20" data-name="&lt;Compound Path&gt;" class="cls-4" d="M29.52,372.05v-2.19H29.06v-0.47h1v0.17a0.77,0.77,0,0,1,.5-0.17h0.65v0.5H30.46a0.36,0.36,0,0,0-.3.13,0.46,0.46,0,0,0-.11.26v1.77h0.68v0.47H29.06v-0.47h0.46Z"/><path id="_Compound_Path_21" data-name="&lt;Compound Path&gt;" class="cls-4" d="M33.83,371.9v0.63H33.2V371.9h0.63Z"/><path id="_Compound_Path_22" data-name="&lt;Compound Path&gt;" class="cls-4" d="M26.45,378.46v-2l-1.12-2.35h0.6l0.83,1.82,0.83-1.82h0.57L27,376.42v2H26.45Z"/><path id="_Compound_Path_23" data-name="&lt;Compound Path&gt;" class="cls-4" d="M31,378.22a1.16,1.16,0,0,1-.81.24H30a1.16,1.16,0,0,1-.81-0.24,1,1,0,0,1-.26-0.76v-1.13a1,1,0,0,1,.26-0.76,1.16,1.16,0,0,1,.81-0.24h0.21a1.16,1.16,0,0,1,.81.24,1,1,0,0,1,.26.76v1.13A1,1,0,0,1,31,378.22Zm-0.39-2.32a0.51,0.51,0,0,0-.35-0.11H30a0.51,0.51,0,0,0-.35.11,0.38,0.38,0,0,0-.12.3v1.38a0.38,0.38,0,0,0,.12.3A0.51,0.51,0,0,0,30,378h0.33a0.51,0.51,0,0,0,.35-0.11,0.38,0.38,0,0,0,.12-0.3V376.2A0.38,0.38,0,0,0,30.64,375.9Z"/><path id="_Compound_Path_24" data-name="&lt;Compound Path&gt;" class="cls-4" d="M32.83,378.22a1,1,0,0,1-.26-0.77v-1.13a1,1,0,0,1,.26-0.76,1.16,1.16,0,0,1,.81-0.24h0.81v0.47H33.58a0.51,0.51,0,0,0-.35.11,0.38,0.38,0,0,0-.12.3v1.38a0.38,0.38,0,0,0,.12.3,0.51,0.51,0,0,0,.35.11h0.87v0.47H33.64A1.17,1.17,0,0,1,32.83,378.22Z"/><path id="_Compound_Path_25" data-name="&lt;Compound Path&gt;" class="cls-4" d="M36.64,378.25a0.83,0.83,0,0,1-.17-0.55V375.8h-0.6v-0.47h0.6v-0.75H37v0.75h0.91v0.47H37v1.94a0.24,0.24,0,0,0,.07.19,0.33,0.33,0,0,0,.21.06h0.63v0.47H37.13A0.59,0.59,0,0,1,36.64,378.25Z"/><path id="_Compound_Path_26" data-name="&lt;Compound Path&gt;" class="cls-4" d="M41.19,378.22a1.16,1.16,0,0,1-.81.24H40.17a1.16,1.16,0,0,1-.81-0.24,1,1,0,0,1-.26-0.76v-1.13a1,1,0,0,1,.26-0.76,1.16,1.16,0,0,1,.81-0.24h0.21a1.16,1.16,0,0,1,.81.24,1,1,0,0,1,.26.76v1.13A1,1,0,0,1,41.19,378.22Zm-0.39-2.32a0.51,0.51,0,0,0-.35-0.11H40.11a0.51,0.51,0,0,0-.35.11,0.38,0.38,0,0,0-.12.3v1.38a0.38,0.38,0,0,0,.12.3,0.51,0.51,0,0,0,.35.11h0.33a0.51,0.51,0,0,0,.35-0.11,0.38,0.38,0,0,0,.12-0.3V376.2A0.38,0.38,0,0,0,40.79,375.9Z"/><path id="_Compound_Path_27" data-name="&lt;Compound Path&gt;" class="cls-4" d="M43.49,378.31a0.63,0.63,0,0,1-.16-0.48v-3.29H42.41v-0.47h1.45v3.73a0.18,0.18,0,0,0,.05.14,0.26,0.26,0,0,0,.17,0h0.83v0.47H43.86A0.53,0.53,0,0,1,43.49,378.31Z"/></g><g id="_Group_23" data-name="&lt;Group&gt;"><g id="_Group_24" data-name="&lt;Group&gt;"><path id="_Path_67" data-name="&lt;Path&gt;" class="cls-5" d="M59.9,376.52a2.14,2.14,0,0,1-.07,1.18c-0.23.4-.06-0.55-0.28-0.88S59.81,376.29,59.9,376.52Z"/><path id="_Path_68" data-name="&lt;Path&gt;" class="cls-5" d="M59.36,376.66a2.14,2.14,0,0,1-.42,1.11c-0.34.32,0.11-.54,0-0.93S59.34,376.42,59.36,376.66Z"/><path id="_Path_69" data-name="&lt;Path&gt;" class="cls-5" d="M58.61,376.57a2.14,2.14,0,0,1-.49,1.08c-0.36.29,0.15-.53,0.06-0.92S58.61,376.32,58.61,376.57Z"/><path id="_Path_70" data-name="&lt;Path&gt;" class="cls-5" d="M59.94,375.79a2.33,2.33,0,0,1,.69,1c0.06,0.47-.39-0.43-0.79-0.58S59.72,375.65,59.94,375.79Z"/><path id="_Path_71" data-name="&lt;Path&gt;" class="cls-6" d="M56.12,373.54s-0.36,4.07-.33,5.12c0,0.77,3.19.52,2.19,1.9-0.8,1.11-3-.51-3-1.35s0.21-5.92.21-5.92Z"/><path id="_Path_72" data-name="&lt;Path&gt;" class="cls-6" d="M51.14,373.89S51.06,378,50.91,379s-3.08,2-1.51,2.72,2.22-1.35,2.3-2.07,0.44-5.91.44-5.91Z"/><path id="_Path_73" data-name="&lt;Path&gt;" class="cls-6" d="M50,366.2c-4,2.2-8.3-1.88-9.35-1.73-0.89.12-2.43,1.39-1.56,2,5.16,3.38,10.79,2.6,11.87.68C52.23,364.79,50,366.2,50,366.2Z"/><path id="_Path_74" data-name="&lt;Path&gt;" class="cls-6" d="M56.22,366.5c1.5,1.62,3.35,6.45,3.95,9,0.43,1.81-2.21,2-2.39.56-0.24-1.91-1.16-7.13-2.45-9S56.22,366.5,56.22,366.5Z"/><path id="_Path_75" data-name="&lt;Path&gt;" class="cls-6" d="M50.63,366.81a9.31,9.31,0,0,0-1.28,7.36c0.92,4.16,7.19,2.86,7.91.72,1-2.82-.54-7.2-1.11-8.13C55.1,365.07,52,365,50.63,366.81Z"/><path id="_Path_76" data-name="&lt;Path&gt;" class="cls-7" d="M51.41,367c-0.44,1.16-1.48,3.83-.41,6.5a3,3,0,0,0,5.54,0c0.76-2.37-.86-6.46-0.86-6.46A3.22,3.22,0,0,0,51.41,367Z"/><path id="_Path_77" data-name="&lt;Path&gt;" class="cls-5" d="M39.06,366.05a2.14,2.14,0,0,1-.69-1c-0.07-.46.39,0.39,0.77,0.51S39.28,366.17,39.06,366.05Z"/><path id="_Path_78" data-name="&lt;Path&gt;" class="cls-5" d="M39.61,365.38a2.14,2.14,0,0,1-.69-1c-0.07-.46.39,0.39,0.77,0.51S39.82,365.5,39.61,365.38Z"/><path id="_Path_79" data-name="&lt;Path&gt;" class="cls-5" d="M40.23,364.91a2.14,2.14,0,0,1-.46-1.09c0-.46.29,0.47,0.64,0.67S40.42,365.07,40.23,364.91Z"/><path id="_Path_80" data-name="&lt;Path&gt;" class="cls-5" d="M41.61,365.16a2.12,2.12,0,0,0-.46-1.1c-0.36-.3.13,0.54,0,0.94S41.6,365.41,41.61,365.16Z"/></g><g id="_Group_25" data-name="&lt;Group&gt;"><g id="_Group_26" data-name="&lt;Group&gt;"><path id="_Path_81" data-name="&lt;Path&gt;" class="cls-6" d="M44.49,356.85c-0.7-.17-7.09-2.12-6.2-1,1.09,1.41,5.73,4.6,8.08,5.81C51.91,364.55,45.13,357.7,44.49,356.85Z"/><path id="_Path_82" data-name="&lt;Path&gt;" class="cls-8" d="M45.1,359.07c-1.92-1.43-7.7-4.34-6.82-3.19a25,25,0,0,0,6.37,4.83C50.08,363.78,45.75,359.92,45.1,359.07Z"/><path id="_Path_83" data-name="&lt;Path&gt;" class="cls-6" d="M62.59,359.68s6.14-.62,5,0.37c-1.31,1.11-6.12,3.13-8.4,3.53s0.69-4.06.69-4.06Z"/><path id="_Path_84" data-name="&lt;Path&gt;" class="cls-8" d="M61.15,362s7.58-3,6.42-2a23.55,23.55,0,0,1-7.77,3.78c-2.14.38,0-3.88,0-3.88Z"/><path id="_Path_85" data-name="&lt;Path&gt;" class="cls-7" d="M62.45,361.41c-4.8,9.81-17.14,6.63-18.35-3.36Z"/></g><path id="_Path_86" data-name="&lt;Path&gt;" class="cls-5" d="M45.31,359.1s3.5,5.07,8.49,5.66,8.49-3.26,8.49-3.26Z"/><g id="_Clip_Group_6" data-name="&lt;Clip Group&gt;"><g class="cls-20"><path id="_Path_87" data-name="&lt;Path&gt;" class="cls-6" d="M64.49,360.81a3.11,3.11,0,0,1-.85,1.76c-1.84,1.58-11.19,3.68-20.85-3.48a2,2,0,0,1-.94-2C42,354,43.59,330.84,55.09,331.95,65,332.9,66,346.12,64.49,360.81Z"/></g></g><path id="_Path_88" data-name="&lt;Path&gt;" class="cls-10" d="M48.79,351.74c0.95-1.91,2.85-2.27,4.32.48a12.27,12.27,0,0,1,1.27,6.69c-0.25,1.79-1.6,2.43-3.51,2-2.53-.54-3.39-1.55-3.47-3.49A12.27,12.27,0,0,1,48.79,351.74Z"/><path id="_Path_89" data-name="&lt;Path&gt;" class="cls-10" d="M62,353.23c-0.49-2.08-2.37-2.77-4.34-.34a12.2,12.2,0,0,0-2.37,6.43c-0.09,1.8,1,2.59,2.93,2.55,2.58-.06,3.62-0.84,3.92-2.76A16.09,16.09,0,0,0,62,353.23Z"/><g id="_Group_27" data-name="&lt;Group&gt;"><circle id="_Path_90" data-name="&lt;Path&gt;" class="cls-6" cx="50.68" cy="356.17" r="2.5" transform="translate(-309.02 349.36) rotate(-80.82)"/><circle id="_Path_91" data-name="&lt;Path&gt;" class="cls-4" cx="50.68" cy="356.17" r="2.27" transform="translate(-309.02 349.36) rotate(-80.82)"/><circle id="_Path_92" data-name="&lt;Path&gt;" class="cls-2" cx="51.72" cy="355.29" r="0.46" transform="translate(-306.88 372.91) rotate(-84.53)"/></g><g id="_Group_28" data-name="&lt;Group&gt;"><circle id="_Path_93" data-name="&lt;Path&gt;" class="cls-6" cx="58.75" cy="357.41" r="2.5" transform="translate(-303.45 358.35) rotate(-80.82)"/><circle id="_Path_94" data-name="&lt;Path&gt;" class="cls-4" cx="58.75" cy="357.41" r="2.27" transform="translate(-303.45 358.35) rotate(-80.82)"/><circle id="_Path_95" data-name="&lt;Path&gt;" class="cls-2" cx="59.79" cy="356.52" r="0.46" transform="translate(-300.81 382.06) rotate(-84.53)"/></g></g></g></g></g></g><circle id="_Path_96" data-name="&lt;Path&gt;" class="cls-11" cx="45.09" cy="359.82" r="29.09"/><circle id="_Path_97" data-name="&lt;Path&gt;" class="cls-2" cx="66.77" cy="381.04" r="12.85"/><circle id="_Path_98" data-name="&lt;Path&gt;" class="cls-12" cx="66.77" cy="381.04" r="9.45"/><polygon id="_Path_99" data-name="&lt;Path&gt;" class="cls-2" points="60.46 383.42 65.55 378.61 68.39 381.04 73.26 378.61 68.51 384.11 64.97 381.36 60.46 383.42"/></g><g id="_Group_29" data-name="&lt;Group&gt;"><g id="_Clip_Group_7" data-name="&lt;Clip Group&gt;"><g class="cls-21"><g id="_Group_30" data-name="&lt;Group&gt;"><rect id="_Rectangle_6" data-name="&lt;Rectangle&gt;" class="cls-2" x="15.16" y="575.47" width="60" height="60.13" rx="5.33" ry="5.33"/><g id="_Group_31" data-name="&lt;Group&gt;"><path id="_Compound_Path_28" data-name="&lt;Compound Path&gt;" class="cls-4" d="M27,616.88H26.48l-0.61-2.46v3.93H25.39V614h0.87l0.5,2.24L27.27,614h0.85v4.39H27.62v-3.93Z"/><path id="_Compound_Path_29" data-name="&lt;Compound Path&gt;" class="cls-4" d="M29.52,617.88v-2.19H29.06v-0.47h1v0.17a0.77,0.77,0,0,1,.5-0.17h0.65v0.5H30.46a0.36,0.36,0,0,0-.3.13,0.46,0.46,0,0,0-.11.26v1.77h0.68v0.47H29.06v-0.47h0.46Z"/><path id="_Compound_Path_30" data-name="&lt;Compound Path&gt;" class="cls-4" d="M33.83,617.73v0.63H33.2v-0.63h0.63Z"/><path id="_Compound_Path_31" data-name="&lt;Compound Path&gt;" class="cls-4" d="M26.45,624.29v-2l-1.12-2.35h0.6l0.83,1.82,0.83-1.82h0.57L27,622.25v2H26.45Z"/><path id="_Compound_Path_32" data-name="&lt;Compound Path&gt;" class="cls-4" d="M31,624.05a1.16,1.16,0,0,1-.81.24H30a1.16,1.16,0,0,1-.81-0.24,1,1,0,0,1-.26-0.76v-1.13a1,1,0,0,1,.26-0.76,1.16,1.16,0,0,1,.81-0.24h0.21a1.16,1.16,0,0,1,.81.24,1,1,0,0,1,.26.76v1.13A1,1,0,0,1,31,624.05Zm-0.39-2.32a0.51,0.51,0,0,0-.35-0.11H30a0.51,0.51,0,0,0-.35.11,0.38,0.38,0,0,0-.12.3v1.38a0.38,0.38,0,0,0,.12.3,0.51,0.51,0,0,0,.35.11h0.33a0.51,0.51,0,0,0,.35-0.11,0.38,0.38,0,0,0,.12-0.3V622A0.38,0.38,0,0,0,30.64,621.73Z"/><path id="_Compound_Path_33" data-name="&lt;Compound Path&gt;" class="cls-4" d="M32.83,624.05a1,1,0,0,1-.26-0.77v-1.13a1,1,0,0,1,.26-0.76,1.16,1.16,0,0,1,.81-0.24h0.81v0.47H33.58a0.51,0.51,0,0,0-.35.11,0.38,0.38,0,0,0-.12.3v1.38a0.38,0.38,0,0,0,.12.3,0.51,0.51,0,0,0,.35.11h0.87v0.47H33.64A1.17,1.17,0,0,1,32.83,624.05Z"/><path id="_Compound_Path_34" data-name="&lt;Compound Path&gt;" class="cls-4" d="M36.64,624.08a0.83,0.83,0,0,1-.17-0.55v-1.91h-0.6v-0.47h0.6V620.4H37v0.75h0.91v0.47H37v1.94a0.24,0.24,0,0,0,.07.19,0.33,0.33,0,0,0,.21.06h0.63v0.47H37.13A0.59,0.59,0,0,1,36.64,624.08Z"/><path id="_Compound_Path_35" data-name="&lt;Compound Path&gt;" class="cls-4" d="M41.19,624.05a1.16,1.16,0,0,1-.81.24H40.17a1.16,1.16,0,0,1-.81-0.24,1,1,0,0,1-.26-0.76v-1.13a1,1,0,0,1,.26-0.76,1.16,1.16,0,0,1,.81-0.24h0.21a1.16,1.16,0,0,1,.81.24,1,1,0,0,1,.26.76v1.13A1,1,0,0,1,41.19,624.05Zm-0.39-2.32a0.51,0.51,0,0,0-.35-0.11H40.11a0.51,0.51,0,0,0-.35.11,0.38,0.38,0,0,0-.12.3v1.38a0.38,0.38,0,0,0,.12.3,0.51,0.51,0,0,0,.35.11h0.33a0.51,0.51,0,0,0,.35-0.11,0.38,0.38,0,0,0,.12-0.3V622A0.38,0.38,0,0,0,40.79,621.73Z"/><path id="_Compound_Path_36" data-name="&lt;Compound Path&gt;" class="cls-4" d="M43.49,624.14a0.63,0.63,0,0,1-.16-0.48v-3.29H42.41V619.9h1.45v3.73a0.18,0.18,0,0,0,.05.14,0.26,0.26,0,0,0,.17,0h0.83v0.47H43.86A0.53,0.53,0,0,1,43.49,624.14Z"/></g><g id="_Group_32" data-name="&lt;Group&gt;"><g id="_Group_33" data-name="&lt;Group&gt;"><path id="_Path_100" data-name="&lt;Path&gt;" class="cls-5" d="M59.9,622.35a2.14,2.14,0,0,1-.07,1.18c-0.23.4-.06-0.55-0.28-0.88S59.81,622.12,59.9,622.35Z"/><path id="_Path_101" data-name="&lt;Path&gt;" class="cls-5" d="M59.36,622.49a2.14,2.14,0,0,1-.42,1.11c-0.34.32,0.11-.54,0-0.93S59.34,622.25,59.36,622.49Z"/><path id="_Path_102" data-name="&lt;Path&gt;" class="cls-5" d="M58.61,622.4a2.14,2.14,0,0,1-.49,1.08c-0.36.29,0.15-.53,0.06-0.92S58.61,622.15,58.61,622.4Z"/><path id="_Path_103" data-name="&lt;Path&gt;" class="cls-5" d="M59.94,621.62a2.33,2.33,0,0,1,.69,1c0.06,0.47-.39-0.43-0.79-0.58S59.72,621.48,59.94,621.62Z"/><path id="_Path_104" data-name="&lt;Path&gt;" class="cls-6" d="M56.12,619.37s-0.36,4.07-.33,5.12c0,0.77,3.19.52,2.19,1.9-0.8,1.11-3-.51-3-1.35s0.21-5.92.21-5.92Z"/><path id="_Path_105" data-name="&lt;Path&gt;" class="cls-6" d="M51.14,619.72s-0.08,4.09-.23,5.13-3.08,2-1.51,2.72,2.22-1.35,2.3-2.07,0.44-5.91.44-5.91Z"/><path id="_Path_106" data-name="&lt;Path&gt;" class="cls-6" d="M50,612c-4,2.2-8.3-1.88-9.35-1.73-0.89.12-2.43,1.39-1.56,2,5.16,3.38,10.79,2.6,11.87.68C52.23,610.62,50,612,50,612Z"/><path id="_Path_107" data-name="&lt;Path&gt;" class="cls-6" d="M56.22,612.33c1.5,1.62,3.35,6.45,3.95,9,0.43,1.81-2.21,2-2.39.56-0.24-1.91-1.16-7.13-2.45-9S56.22,612.33,56.22,612.33Z"/><path id="_Path_108" data-name="&lt;Path&gt;" class="cls-6" d="M50.63,612.64A9.31,9.31,0,0,0,49.35,620c0.92,4.16,7.19,2.86,7.91.72,1-2.82-.54-7.2-1.11-8.13C55.1,610.9,52,610.8,50.63,612.64Z"/><path id="_Path_109" data-name="&lt;Path&gt;" class="cls-7" d="M51.41,612.83c-0.44,1.16-1.48,3.83-.41,6.5a3,3,0,0,0,5.54,0c0.76-2.37-.86-6.46-0.86-6.46A3.22,3.22,0,0,0,51.41,612.83Z"/><path id="_Path_110" data-name="&lt;Path&gt;" class="cls-5" d="M39.06,611.88a2.14,2.14,0,0,1-.69-1c-0.07-.46.39,0.39,0.77,0.51S39.28,612,39.06,611.88Z"/><path id="_Path_111" data-name="&lt;Path&gt;" class="cls-5" d="M39.61,611.21a2.14,2.14,0,0,1-.69-1c-0.07-.46.39,0.39,0.77,0.51S39.82,611.33,39.61,611.21Z"/><path id="_Path_112" data-name="&lt;Path&gt;" class="cls-5" d="M40.23,610.74a2.14,2.14,0,0,1-.46-1.09c0-.46.29,0.47,0.64,0.67S40.42,610.9,40.23,610.74Z"/><path id="_Path_113" data-name="&lt;Path&gt;" class="cls-5" d="M41.61,611a2.12,2.12,0,0,0-.46-1.1c-0.36-.3.13,0.54,0,0.94S41.6,611.24,41.61,611Z"/></g><g id="_Group_34" data-name="&lt;Group&gt;"><g id="_Group_35" data-name="&lt;Group&gt;"><path id="_Path_114" data-name="&lt;Path&gt;" class="cls-6" d="M44.49,602.68c-0.7-.17-7.09-2.12-6.2-1,1.09,1.41,5.73,4.6,8.08,5.81C51.91,610.38,45.13,603.53,44.49,602.68Z"/><path id="_Path_115" data-name="&lt;Path&gt;" class="cls-8" d="M45.1,604.9c-1.92-1.43-7.7-4.34-6.82-3.19a25,25,0,0,0,6.37,4.83C50.08,609.61,45.75,605.75,45.1,604.9Z"/><path id="_Path_116" data-name="&lt;Path&gt;" class="cls-6" d="M62.59,605.51s6.14-.62,5,0.37c-1.31,1.11-6.12,3.13-8.4,3.53s0.69-4.06.69-4.06Z"/><path id="_Path_117" data-name="&lt;Path&gt;" class="cls-8" d="M61.15,607.85s7.58-3,6.42-2a23.55,23.55,0,0,1-7.77,3.78c-2.14.38,0-3.88,0-3.88Z"/><path id="_Path_118" data-name="&lt;Path&gt;" class="cls-7" d="M62.45,607.24c-4.8,9.81-17.14,6.63-18.35-3.36Z"/></g><path id="_Path_119" data-name="&lt;Path&gt;" class="cls-5" d="M45.31,604.93s3.5,5.07,8.49,5.66,8.49-3.26,8.49-3.26Z"/><g id="_Clip_Group_8" data-name="&lt;Clip Group&gt;"><g class="cls-22"><path id="_Path_120" data-name="&lt;Path&gt;" class="cls-6" d="M64.49,606.64a3.11,3.11,0,0,1-.85,1.76c-1.84,1.58-11.19,3.68-20.85-3.48a2,2,0,0,1-.94-2c0.16-3.11,1.73-26.25,13.22-25.14C65,578.73,66,591.95,64.49,606.64Z"/></g></g><path id="_Path_121" data-name="&lt;Path&gt;" class="cls-10" d="M48.79,597.57c0.95-1.91,2.85-2.27,4.32.48a12.27,12.27,0,0,1,1.27,6.69c-0.25,1.79-1.6,2.43-3.51,2-2.53-.54-3.39-1.55-3.47-3.49A12.27,12.27,0,0,1,48.79,597.57Z"/><path id="_Path_122" data-name="&lt;Path&gt;" class="cls-10" d="M62,599.06c-0.49-2.08-2.37-2.77-4.34-.34a12.2,12.2,0,0,0-2.37,6.43c-0.09,1.8,1,2.59,2.93,2.55,2.58-.06,3.62-0.84,3.92-2.76A16.09,16.09,0,0,0,62,599.06Z"/><g id="_Group_36" data-name="&lt;Group&gt;"><circle id="_Path_123" data-name="&lt;Path&gt;" class="cls-6" cx="50.68" cy="602" r="2.5" transform="translate(-551.7 555.95) rotate(-80.82)"/><circle id="_Path_124" data-name="&lt;Path&gt;" class="cls-4" cx="50.68" cy="602" r="2.27" transform="translate(-551.7 555.95) rotate(-80.82)"/><circle id="_Path_125" data-name="&lt;Path&gt;" class="cls-2" cx="51.72" cy="601.12" r="0.46" transform="translate(-551.59 595.31) rotate(-84.53)"/></g><g id="_Group_37" data-name="&lt;Group&gt;"><circle id="_Path_126" data-name="&lt;Path&gt;" class="cls-6" cx="58.75" cy="603.24" r="2.5" transform="translate(-546.13 564.95) rotate(-80.82)"/><circle id="_Path_127" data-name="&lt;Path&gt;" class="cls-4" cx="58.75" cy="603.24" r="2.27" transform="translate(-546.13 564.95) rotate(-80.82)"/><circle id="_Path_128" data-name="&lt;Path&gt;" class="cls-2" cx="59.79" cy="602.35" r="0.46" transform="translate(-545.52 604.45) rotate(-84.53)"/></g></g></g></g></g></g><circle id="_Path_129" data-name="&lt;Path&gt;" class="cls-11" cx="45.09" cy="605.65" r="29.09"/><circle id="_Path_130" data-name="&lt;Path&gt;" class="cls-2" cx="66.77" cy="626.87" r="12.85"/><circle id="_Path_131" data-name="&lt;Path&gt;" class="cls-12" cx="66.77" cy="626.87" r="9.45"/><polygon id="_Path_132" data-name="&lt;Path&gt;" class="cls-2" points="60.46 629.25 65.55 624.44 68.39 626.87 73.26 624.44 68.51 629.94 64.97 627.19 60.46 629.25"/></g><g id="_Group_38" data-name="&lt;Group&gt;"><rect id="_Rectangle_7" data-name="&lt;Rectangle&gt;" class="cls-12" x="22.27" y="63.45" width="4.57" height="24.84" transform="translate(-46.45 39.58) rotate(-45)"/><rect id="_Rectangle_8" data-name="&lt;Rectangle&gt;" class="cls-12" x="22.27" y="49.12" width="4.57" height="24.84" transform="translate(-1.59 122.41) rotate(-135)"/></g><text class="cls-23" transform="translate(44.8 79.21)">首頁</text><text class="cls-23" transform="translate(550.6 79.21)">管理</text><g id="_Group_39" data-name="&lt;Group&gt;"><g id="_Group_40" data-name="&lt;Group&gt;"><rect id="_Rectangle_9" data-name="&lt;Rectangle&gt;" class="cls-24" x="359.11" y="43.23" width="2.08" height="11.29" transform="translate(649.38 -171.23) rotate(135)"/><rect id="_Rectangle_10" data-name="&lt;Rectangle&gt;" class="cls-24" x="359.11" y="49.75" width="2.08" height="11.29" transform="translate(144.66 -238.44) rotate(45)"/></g><text class="cls-25" transform="translate(255.01 59.53)">M<tspan class="cls-26" x="15.75" y="0">r</tspan><tspan x="22.08" y="0">. 有顆頭</tspan></text><text class="cls-27" transform="translate(255.39 86.49)">通常立即回覆</text></g><line id="_Path_133" data-name="&lt;Path&gt;" class="cls-28" x1="-0.17" y1="106.2" x2="620.06" y2="106.2"/><g id="_Group_41" data-name="&lt;Group&gt;"><text class="cls-29" transform="translate(70.65 23.97) scale(1 0.96)">優拓電信</text><text class="cls-29" transform="translate(263.54 23.97) scale(1 0.96)">下午<tspan class="cls-30" x="40.59" y="0">11:11</tspan></text><g id="_Group_42" data-name="&lt;Group&gt;"><text class="cls-31" transform="translate(512.36 22.99) scale(1 0.96)"><tspan class="cls-26">1</tspan><tspan x="9.66" y="0">0</tspan><tspan x="21.75" y="0">0%</tspan></text></g><text class="cls-29" transform="translate(165.24 23.97) scale(1 0.96)">4G</text><g id="_Group_43" data-name="&lt;Group&gt;"><circle id="_Path_134" data-name="&lt;Path&gt;" class="cls-4" cx="13.06" cy="16.3" r="4.88"/><circle id="_Path_135" data-name="&lt;Path&gt;" class="cls-4" cx="24.38" cy="16.3" r="4.88"/><path id="_Compound_Path_37" data-name="&lt;Compound Path&gt;" class="cls-4" d="M58.34,11.42a4.88,4.88,0,1,0,4.88,4.88A4.88,4.88,0,0,0,58.34,11.42Z"/><path id="_Compound_Path_38" data-name="&lt;Compound Path&gt;" class="cls-4" d="M47,11.42A4.88,4.88,0,1,0,51.9,16.3,4.88,4.88,0,0,0,47,11.42Z"/><path id="_Compound_Path_39" data-name="&lt;Compound Path&gt;" class="cls-4" d="M35.7,11.42a4.88,4.88,0,1,0,4.88,4.88A4.88,4.88,0,0,0,35.7,11.42Z"/></g><polygon id="_Path_136" data-name="&lt;Path&gt;" class="cls-4" points="494.73 15.37 508.96 9.28 502.52 23.63 502.52 15.36 494.73 15.37"/><rect id="_Rectangle_11" data-name="&lt;Rectangle&gt;" class="cls-32" x="573.3" y="9.28" width="35.77" height="14.35" rx="7.02" ry="7.02"/><rect id="_Rectangle_12" data-name="&lt;Rectangle&gt;" class="cls-33" x="575.02" y="10.92" width="32.34" height="11.07" rx="5.42" ry="5.42"/><path id="_Path_137" data-name="&lt;Path&gt;" class="cls-4" d="M612,13.24h-1.28a0.38,0.38,0,0,0-.38.38v5.32a0.38,0.38,0,0,0,.38.38H612a1.3,1.3,0,0,0,1.3-1.3v-3.5A1.3,1.3,0,0,0,612,13.24Z"/></g><rect id="_Rectangle_13" data-name="&lt;Rectangle&gt;" class="cls-12" x="152.46" y="655.67" width="444.3" height="56.47" rx="27.64" ry="27.64"/><text class="cls-34" transform="translate(175.4 696.06) scale(1 0.96)">我比較好奇你們的客戶產業</text><rect id="_Rectangle_14" data-name="&lt;Rectangle&gt;" class="cls-12" x="388.5" y="198.54" width="208.26" height="56.47" rx="27.64" ry="27.64"/><text class="cls-34" transform="translate(411.33 238.93)">你是 AI <tspan class="cls-35" x="111.02" y="0">嗎</tspan><tspan class="cls-35" x="139.46" y="0">？</tspan></text><g id="_Group_44" data-name="&lt;Group&gt;"><rect id="_Rectangle_15" data-name="&lt;Rectangle&gt;" class="cls-13" x="86.99" y="274.16" width="463.61" height="115.62" rx="48.92" ry="48.92"/></g><text class="cls-14" transform="translate(114.07 321.39)">按照主流的 AI 分類，我只能<tspan x="0" y="48.46">算是「</tspan><tspan class="cls-36" x="98.51" y="48.46">弱</tspan><tspan x="139.56" y="48.46">AI</tspan><tspan class="cls-37" x="170.13" y="48.46">」。</tspan></text><g id="_Group_45" data-name="&lt;Group&gt;"><rect id="_Rectangle_16" data-name="&lt;Rectangle&gt;" class="cls-13" x="86.99" y="404.44" width="463.61" height="231.86" rx="48.92" ry="48.92"/></g><text class="cls-14" transform="translate(114.07 458.15)">也就是說，我可以模仿人類<tspan x="0" y="48.46">的對話行為，但並不真正具</tspan><tspan x="0" y="96.91">有自我意識，所以不用擔心</tspan><tspan x="0" y="145.37">我毀滅人類啦～</tspan></text><g id="_Group_46" data-name="&lt;Group&gt;"><rect id="_Rectangle_17" data-name="&lt;Rectangle&gt;" class="cls-13" x="86.99" y="731.43" width="463.61" height="265.89" rx="48.92" ry="48.92"/></g><text class="cls-14" transform="translate(114.07 780.72)">只要有數據、有分析需求的<tspan x="0" y="48.46">產業，都是我們的服務客群</tspan><tspan class="cls-37" x="394.04" y="48.46">。</tspan><tspan x="0" y="96.91">像是我們科技業、服飾業</tspan><tspan class="cls-37" x="361.21" y="96.91">、</tspan><tspan x="0" y="145.37">酒商</tspan><tspan class="cls-37" x="65.67" y="145.37">、</tspan><tspan class="cls-38" x="82.09" y="145.37"> 生技醫療業、汽車業</tspan><tspan class="cls-37" x="385.01" y="145.37">、</tspan><tspan x="0" y="193.83">金融業、媒體業</tspan><tspan class="cls-37" x="229.86" y="193.83">。</tspan></text><line id="_Path_138" data-name="&lt;Path&gt;" class="cls-28" x1="-0.17" y1="1038.88" x2="620.06" y2="1038.88"/><g id="_Group_47" data-name="&lt;Group&gt;"><path id="_Compound_Path_40" data-name="&lt;Compound Path&gt;" class="cls-39" d="M229,1082v5.08h-1.81V1082h-4.75v-1.75h4.75v-2.38h-3.86v-10.54h3.89V1065h-4.51v-1.72h4.51v-3.21H229v3.21h4.4V1065H229v2.35h3.83v10.54H229v2.38h4.43V1082H229Zm-4.1-10.16h2.47v-3h-2.47v3Zm0,4.51h2.47v-3.06h-2.47v3.06Zm6.3-7.51h-2.38v3h2.38v-3Zm0,4.45h-2.38v3.06h2.38v-3.06ZM241.37,1085a1.47,1.47,0,0,1-.74,1.57,7,7,0,0,1-2.85.3,5.15,5.15,0,0,0-.53-1.51c1,0,2,0,2.23,0a0.29,0.29,0,0,0,.36-0.36v-3.86h-3.71a14.06,14.06,0,0,1-1.84,5.94,4.18,4.18,0,0,0-1.28-1c1.57-2.61,1.75-6.06,1.75-8.7v-6.24h6.62V1085Zm1.46-24.53c-0.15.33-.33,0.59-0.51,0.92a20.51,20.51,0,0,0,7.28,6.09,5.68,5.68,0,0,0-1.22,1.46,23.27,23.27,0,0,1-6.95-6.15,22.62,22.62,0,0,1-6.77,6.27,6.14,6.14,0,0,0-1.28-1.37,19.65,19.65,0,0,0,7.84-7.81Zm-3,19.19v-2.82h-3.5v0.53c0,0.71,0,1.49-.06,2.29h3.56Zm-3.5-7v2.7h3.5v-2.7h-3.5Zm9.21-3.77h-8v-1.57h8v1.57Zm-0.77,13.42H243.3v-10.6h1.46v10.6Zm2.08-11.64h1.51v14.23a1.49,1.49,0,0,1-.83,1.66,11.44,11.44,0,0,1-3.53.27,5.29,5.29,0,0,0-.53-1.49c1.4,0,2.55,0,2.91,0s0.48-.12.48-0.48v-14.2Z"/><path id="_Compound_Path_41" data-name="&lt;Compound Path&gt;" class="cls-39" d="M266.85,1061.91c0,5.2.68,16.48,12.44,23.46a10.46,10.46,0,0,0-1.57,1.66,25.74,25.74,0,0,1-12-16.87c-2.23,7.87-6,13.36-12.06,16.9a13.1,13.1,0,0,0-1.75-1.57c6.62-3.45,10.34-9.47,12.18-17.91l1.16,0.18c-0.21-1.43-.33-2.73-0.39-3.89h-7.37v-2h9.33Z"/><path id="_Compound_Path_42" data-name="&lt;Compound Path&gt;" class="cls-39" d="M292.6,1066.78H282v-1.63H292.6v1.63Zm-1.1,18.53h-6.77v1.43h-1.6v-9.95h8.38v8.52Zm-8.35-14.73V1069h8.32v1.57h-8.32Zm0,2.26h8.35v1.6h-8.35v-1.6Zm1.57,5.61v5.2h5.14v-5.2h-5.14Zm2.52-13.75a25.62,25.62,0,0,0-2.11-3.92l1.43-.8a24.37,24.37,0,0,1,2.17,3.8Zm18.5-2.91c-0.15,12.41-.24,22.36,1.54,22.78,0.18,0.06.39-1.81,0.51-3.95,0.36,0.45.89,1.07,1.19,1.37-0.3,4.13-1.16,5.08-2.47,4.57-2.91-.89-2.79-10.42-2.76-22.87H298.6v8.91h4.1v1.87h-4.1v12.65h-1.87v-12.65h-4.16v-1.87h4.16v-8.91H292.9v-1.9h12.86Z"/><path id="_Compound_Path_43" data-name="&lt;Compound Path&gt;" class="cls-39" d="M311.64,1084.9a29.07,29.07,0,0,0,3.06-6l1.69,0.71a44.74,44.74,0,0,1-3,6.12Zm22.27-8H316v-14h6.92c0.42-1,.92-2.2,1.19-3.06l2.23,0.42c-0.48.92-1,1.87-1.4,2.64h9v14Zm-2-12.38h-14V1067h14v-2.55Zm0,4.1h-14v2.55h14v-2.55Zm0,4.1h-14v2.58h14v-2.58ZM329,1084.78c1.63,0,1.87-.45,2-3.5a5.29,5.29,0,0,0,1.84.77c-0.27,3.68-.92,4.54-3.71,4.54h-7c-3.27,0-4.16-.53-4.16-2.76v-4.93h2v4.93c0,0.77.36,1,2.26,1H329Zm-4.93-7.9a23.84,23.84,0,0,1,4.13,4.54l-1.6,1a23.28,23.28,0,0,0-4-4.66Zm10.48,1.57a23.29,23.29,0,0,1,3.42,5.82l-1.81.83a24.94,24.94,0,0,0-3.36-5.91Z"/><path id="_Compound_Path_44" data-name="&lt;Compound Path&gt;" class="cls-39" d="M343.12,1074.35a1.66,1.66,0,1,1,1.66,1.64A1.64,1.64,0,0,1,343.12,1074.35Zm10,0a1.66,1.66,0,1,1,3.32,0A1.66,1.66,0,0,1,353.07,1074.35Zm10,0a1.65,1.65,0,1,1,1.63,1.64A1.62,1.62,0,0,1,363.05,1074.35Z"/><path id="_Compound_Path_45" data-name="&lt;Compound Path&gt;" class="cls-39" d="M373,1074.35a1.66,1.66,0,1,1,1.66,1.64A1.64,1.64,0,0,1,373,1074.35Zm10,0a1.66,1.66,0,1,1,3.32,0A1.66,1.66,0,0,1,382.91,1074.35Zm10,0a1.65,1.65,0,1,1,1.63,1.64A1.62,1.62,0,0,1,392.89,1074.35Z"/></g><g id="_Group_48" data-name="&lt;Group&gt;"><rect id="_Rectangle_18" data-name="&lt;Rectangle&gt;" class="cls-12" x="24.35" y="1063.26" width="31.4" height="1.87"/><rect id="_Rectangle_19" data-name="&lt;Rectangle&gt;" class="cls-12" x="24.35" y="1073.17" width="31.4" height="1.87"/><rect id="_Rectangle_20" data-name="&lt;Rectangle&gt;" class="cls-12" x="24.35" y="1083.08" width="31.4" height="1.87"/></g></svg>