<svg id="Layer_1" data-name="Layer 1" xmlns="http://www.w3.org/2000/svg" xmlns:xlink="http://www.w3.org/1999/xlink" viewBox="0 0 1256.08 1260.65"><defs><style>.cls-1{fill:none;}.cls-2{fill:#f5be8c;}.cls-3{fill:#fff;}.cls-4{fill:#21454b;}.cls-5{fill:#2bb8c4;}.cls-6{fill:#348c96;}.cls-7{fill:#306e7b;}.cls-8{clip-path:url(#clip-path);}.cls-9{fill:#a3dbdf;}.cls-10{fill:#2bbec6;}.cls-11{fill:#000200;}</style><clipPath id="clip-path"><path id="_Clipping_Path_" data-name="&lt;Clipping Path&gt;" class="cls-1" d="M391.27,660s3.77,22.91,18.63,34.61c15.64,12.32,46.55,24.85,102.15,25.32,37.42,0.31,42.57-21.26,78.87-29.22s57.95,12,98.54-3c47.94-17.65,86.11-40.47,136.7-81.57,8.93-7.25,19.53-15.74,17-41.25C837.13,502.51,790,75.58,559,101.81,362.84,124.08,347.24,365.78,391.27,660Z"/></clipPath></defs><title>AlohaAI_Logo_ver1108</title><circle class="cls-2" cx="628.04" cy="628.04" r="628.04"/><circle class="cls-3" cx="628.04" cy="628.04" r="612.09"/><g id="_Group_" data-name="&lt;Group&gt;"><g id="_Group_2" data-name="&lt;Group&gt;"><path id="_Path_" data-name="&lt;Path&gt;" class="cls-4" d="M485.3,1020.27s-4,19,1.64,28.8,1.36-13.42,6.78-21.49C498.86,1019.92,487.52,1014.67,485.3,1020.27Z"/><path id="_Path_2" data-name="&lt;Path&gt;" class="cls-4" d="M498.53,1023.81s1.81,19.3,10.12,27-2.69-13.22.1-22.54C511.39,1019.46,499,1017.81,498.53,1023.81Z"/><path id="_Path_3" data-name="&lt;Path&gt;" class="cls-4" d="M516.69,1021.48s3.2,19.12,12,26.21-3.63-13-1.53-22.48C529.19,1016.21,516.72,1015.47,516.69,1021.48Z"/><path id="_Path_4" data-name="&lt;Path&gt;" class="cls-4" d="M484.38,1002.65s-15.23,13.68-16.73,25.17,9.55-10.51,19.12-14.2C495.84,1010.12,489.73,999.22,484.38,1002.65Z"/><path id="_Path_5" data-name="&lt;Path&gt;" class="cls-5" d="M577.45,947.74s8.75,99,8.08,124.62c-0.49,18.77-77.49,12.53-53.18,46.15,19.5,27,74.13-12.45,74.13-32.73,0-18.3-5.2-144-5.2-144Z"/><path id="_Path_6" data-name="&lt;Path&gt;" class="cls-5" d="M698.57,956.3s1.93,99.43,5.6,124.75c3.58,24.69,75,49,36.69,66.06-37.54,16.36-54.12-32.86-56.05-50.43-2-18.19-10.59-143.75-10.59-143.75Z"/><path id="_Path_7" data-name="&lt;Path&gt;" class="cls-5" d="M727,769.12c109.79,54.1,160.39-111.53,182.77-100.72,19.65,9.49,54.21,28.33,38,47.68-92.39,110.35-160.68,119.07-244.16,75C646.69,761,727,769.12,727,769.12Z"/><path id="_Path_8" data-name="&lt;Path&gt;" class="cls-5" d="M574.82,776.42c-36.49,39.36-81.58,156.85-96,218.36-10.36,44.16,53.87,47.6,58.15,13.57,5.84-46.49,28.32-173.57,59.63-219.71S574.82,776.42,574.82,776.42Z"/><path id="_Path_9" data-name="&lt;Path&gt;" class="cls-5" d="M711,784.06c15.89,21.74,51.36,87.64,31.13,179.16-22.37,101.19-174.94,69.62-192.49,17.56-23.12-68.57,13-175.18,27.07-197.86C602.22,741.74,678.26,739.24,711,784.06Z"/><path id="_Path_10" data-name="&lt;Path&gt;" class="cls-6" d="M691.87,788.59c10.73,28.18,35.89,93.06,10,158-28.09,70.46-118.93,50.36-134.76,1.14C548.55,890.13,588,790.5,588,790.5S638.75,743.69,691.87,788.59Z"/><path id="_Path_11" data-name="&lt;Path&gt;" class="cls-4" d="M947.66,707.1s15-12.23,16.84-23.42-9.49,9.58-18.79,12.44C936.9,698.83,942.41,710,947.66,707.1Z"/><path id="_Path_12" data-name="&lt;Path&gt;" class="cls-4" d="M934.47,690.65s15-12.23,16.84-23.42-9.5,9.58-18.79,12.44C923.71,682.39,929.23,693.6,934.47,690.65Z"/><path id="_Path_13" data-name="&lt;Path&gt;" class="cls-4" d="M919.2,679.24s12-15.25,11.25-26.56-7.14,11.44-15.58,16.28C906.88,673.56,914.74,683.28,919.2,679.24Z"/><path id="_Path_14" data-name="&lt;Path&gt;" class="cls-4" d="M885.63,685.36s2.62-19.39,11.29-26.65-3.25,13.19-.83,22.79C898.39,690.59,885.85,691.45,885.63,685.36Z"/></g><g id="_Group_3" data-name="&lt;Group&gt;"><g id="_Group_4" data-name="&lt;Group&gt;"><path id="_Path_15" data-name="&lt;Path&gt;" class="cls-5" d="M818.52,539.11c15.8-7.81,157.33-87.7,142.31-55.64C942.4,522.79,848.91,622.73,799.39,664,682.9,761.08,807.75,562.69,818.52,539.11Z"/><path id="_Path_16" data-name="&lt;Path&gt;" class="cls-7" d="M815.64,595.06C853.77,551,975.86,451.41,960.83,483.47,942.4,522.79,886.45,585.3,834.91,631.71,722.22,733.19,804.87,618.64,815.64,595.06Z"/><path id="_Path_17" data-name="&lt;Path&gt;" class="cls-5" d="M390.12,629.71S240.22,621.3,269.39,644c33,25.69,152.12,69.46,207.89,76.85,52.45,7-21.08-97.86-21.08-97.86Z"/><path id="_Path_18" data-name="&lt;Path&gt;" class="cls-7" d="M427.58,684.89S240.22,621.3,269.39,644c33,25.69,137,76.11,192.81,83.5,52.45,7-3-94.25-3-94.25Z"/><path id="_Path_19" data-name="&lt;Path&gt;" class="cls-6" d="M395.33,671.62C522.46,904.91,819.07,814.3,837.71,570.14Z"/></g><path id="_Path_20" data-name="&lt;Path&gt;" class="cls-4" d="M809.33,596.87S729.73,724,609.11,743.63s-209.82-70.22-209.82-70.22Z"/><g id="_Clip_Group_" data-name="&lt;Clip Group&gt;"><g class="cls-8"><path id="_Path_21" data-name="&lt;Path&gt;" class="cls-5" d="M345,659.18s4.56,27.68,22.5,41.81c46.37,36.53,275.94,77.51,502.95-106.89,10.79-8.77,23.6-19,20.59-49.84-7.34-75.33-70.19-636.12-348.41-596.83C303.61-18.8,291.78,303.73,345,659.18Z"/></g></g><path id="_Path_22" data-name="&lt;Path&gt;" class="cls-9" d="M716.87,421.91c-25.12-45.48-71.69-52.17-104.53,16.4-26.84,56-30.73,126.34-23.64,164,8.12,43.19,41.55,57.22,87.55,45.2,60.83-15.9,80.74-41.31,80.54-88.54C756.62,517,742.1,467.58,716.87,421.91Z"/><path id="_Path_23" data-name="&lt;Path&gt;" class="cls-9" d="M397.89,472.12c9.61-51.06,54.62-69.84,105-12.92,41.2,46.52,60.91,115.5,64.45,153.69,4.05,43.76-20.93,64-68.47,65-62.87,1.41-89-16.61-98.29-62.92C392.87,576.49,388.39,522.61,397.89,472.12Z"/><g id="_Group_5" data-name="&lt;Group&gt;"><circle id="_Path_24" data-name="&lt;Path&gt;" class="cls-10" cx="675.74" cy="531.6" r="60.81" transform="translate(-93.88 148.31) rotate(-11.72)"/><circle id="_Path_25" data-name="&lt;Path&gt;" class="cls-11" cx="675.74" cy="531.6" r="55.13" transform="translate(-93.87 148.3) rotate(-11.72)"/><circle id="_Path_26" data-name="&lt;Path&gt;" class="cls-3" cx="649.41" cy="511.3" r="11.3" transform="translate(-64.85 95.38) rotate(-8)"/></g><g id="_Group_6" data-name="&lt;Group&gt;"><circle id="_Path_27" data-name="&lt;Path&gt;" class="cls-10" cx="480.97" cy="570.21" r="60.81" transform="translate(-105.78 109.56) rotate(-11.72)"/><circle id="_Path_28" data-name="&lt;Path&gt;" class="cls-11" cx="480.97" cy="570.21" r="55.13" transform="translate(-105.77 109.55) rotate(-11.72)"/><circle id="_Path_29" data-name="&lt;Path&gt;" class="cls-3" cx="454.64" cy="549.91" r="11.3" transform="matrix(0.99, -0.14, 0.14, 0.99, -72.14, 68.66)"/></g></g></g></svg>