<?xml version="1.0" encoding="utf-8"?>
<!-- Generator: Adobe Illustrator 19.0.0, SVG Export Plug-In . SVG Version: 6.00 Build 0)  -->
<svg version="1.1" id="Layer_1" xmlns="http://www.w3.org/2000/svg" xmlns:xlink="http://www.w3.org/1999/xlink" x="0px" y="0px"
	 viewBox="0 0 1256.1 1260.7" style="enable-background:new 0 0 1256.1 1260.7;" xml:space="preserve">
<style type="text/css">
	.st0{fill:#F5BD8B;}
	.st1{fill:#FFFFFF;}
	.st2{fill:#2CB6C6;}
	.st3{fill:#1E8995;}
	.st4{fill:#0D4248;}
	.st5{fill:#1A6A79;}
	.st6{clip-path:url(#XMLID_35_);fill:#2CB6C6;}
	.st7{fill:#B2E0E4;}
	.st8{fill:#020303;}
</style>
<circle class="st0" cx="628" cy="628" r="628"/>
<circle class="st1" cx="628" cy="628" r="612.1"/>
<g id="XMLID_1_">
	<g id="XMLID_2_">
		<g id="XMLID_20_">
			<path id="XMLID_34_" class="st2" d="M607.9,954.6c0,0,30.4,93.7,37.4,118.2c3.1,10.8-5.8,22.8-13.1,38.8
				c-6.1,13.5-21.4,9.5-20.7,21.4c0.5,7.9,15.2,16.5,25.4,17.1c11.8,0.7,18.6-4.6,20.9-12.2c12-39.2,17.1-50.1,14.8-58.7
				c-1.7-6.4-6.5-8-7.7-12.4c-9.2-33.3-35.5-123.7-35.5-123.7L607.9,954.6z"/>
			<path id="XMLID_33_" class="st2" d="M514.3,937.4c0,0,40.4,89.9,49.8,113.5c4.8,12-3.4,23.3-8.8,40
				c-4.6,14.1-20.2,11.6-18.2,23.4c1.3,7.8,16.9,14.8,27.1,14.4c11.8-0.5,18-6.6,19.5-14.3c7.7-40.2,11.6-51.6,8.4-59.9
				c-2.4-6.1-7.3-7.3-9-11.5c-12.7-32.1-48.6-119.2-48.6-119.2L514.3,937.4z"/>
			<path id="XMLID_32_" class="st2" d="M516.6,802.9c-74.4-69.2-159.7-132.5-221.9-137.8c-44.8-3.9-49.8,49.2-15.8,53.2
				c75.5,8.9,189.4,72.8,228.9,111.6C547.3,868.7,516.6,802.9,516.6,802.9z"/>
			<path id="XMLID_31_" class="st2" d="M664.4,775c15.1,22,37.8,89.9,15,180.1c-25.3,99.7-158.2,59.6-181,10.1
				c-36.3-78.8,11-173.7,32.9-195.4C565.4,735.9,633.3,729.5,664.4,775z"/>
			<path id="XMLID_30_" class="st3" d="M645.2,778.9c9.8,28.3,19.8,93.4-4,158.1c-26,70.6-114,49.7-129.5-2.8
				c-22.1-74.5,26.9-160.2,26.9-160.2S593.9,732.7,645.2,778.9z"/>
			<path id="XMLID_29_" class="st4" d="M271.9,668c2.1,1.2,6.6,4.6,8.3,11.1c2.8,10.9-3.1,3.3-11.3-2
				C261.1,672,264.2,663.5,271.9,668z"/>
			<path id="XMLID_28_" class="st4" d="M258.8,681.2c2.5,0.2,8.2,1.3,12.7,6.4c7.5,8.5-1.4,4.3-11.5,3.1
				C250.4,689.6,250.9,680.5,258.8,681.2z"/>
			<path id="XMLID_27_" class="st4" d="M258,698c2.4-0.5,7.9-1.4,13.6,2.1c9.5,5.8,0.1,4.6-9.6,6.7C252.8,708.9,249.6,699.9,258,698
				z"/>
			<path id="XMLID_26_" class="st4" d="M302.7,665.4c3.8,5.4,6.3,12.9,4.9,21.4c-1.9,11.1-9.5-15.6-16.7-21.5
				C289.7,661.4,298.4,659.3,302.7,665.4z"/>
			<path id="XMLID_25_" class="st2" d="M678.5,816.9c86.3-53.5,182.2-99.2,244.3-92.5c44.7,4.8,34.9,57.7,0.8,55.1
				c-75.8-5.8-195.4,35.2-241.6,65.6C635.8,875.6,678.5,816.9,678.5,816.9z"/>
			<path id="XMLID_24_" class="st4" d="M945.6,731.1c-2.3,0.9-7.3,3.3-10.3,9.3c-4.9,10.1,2.3,3.9,11.5,0.2
				C955.4,737.2,955.1,727.1,945.6,731.1z"/>
			<path id="XMLID_23_" class="st4" d="M953.3,749.8c-2.1-0.8-7.3-1.7-12.7,1.4c-9.1,5.2-0.3,4.5,8.5,6.9
				C957.5,760.4,962,753.1,953.3,749.8z"/>
			<path id="XMLID_22_" class="st4" d="M947.7,767c-2.2-1-7.5-2.9-13.8-0.6c-10.4,3.9-0.9,4.5,8.1,8.5
				C950.7,778.6,955.3,770.5,947.7,767z"/>
			<path id="XMLID_21_" class="st4" d="M914.9,723.2c-4.8,4.6-8.7,11.4-8.9,20.1c-0.3,11.3,12.3-13.5,20.6-17.9
				C928.4,721.8,920.3,718,914.9,723.2z"/>
		</g>
		<g id="XMLID_3_">
			<g id="XMLID_17_">
				<path id="XMLID_19_" class="st2" d="M857.9,544.7c15.2-8.7,150.2-96.8,137.4-64.1c-15.7,40.1-102,145-148.4,189
					C737.7,773.1,848.7,568.7,857.9,544.7z"/>
				<path id="XMLID_18_" class="st5" d="M858.6,600.3c34.9-46.1,149.5-152.4,136.7-119.7c-15.7,40.1-132.5,190.9-191.4,223.2
					C735.7,676.9,849.4,624.3,858.6,600.3z"/>
			</g>
			<g id="XMLID_14_">
				<path id="XMLID_16_" class="st2" d="M444.5,522.2c0,0-91.9-117.2-89.8-80.6c2.4,41.4,47.8,158.8,78.8,205.2
					c29.2,43.6,59.2-79.8,59.2-79.8L444.5,522.2z"/>
				<path id="XMLID_15_" class="st5" d="M427.8,586.2c0,0-75.3-181.2-73.1-144.6c2.4,41.4,33,152,64,198.3
					c29.2,43.6,68.4-64,68.4-64L427.8,586.2z"/>
			</g>
			<path id="XMLID_13_" class="st3" d="M398.7,603.4c59.2,256.8,366.8,249.5,449.8,21.2L398.7,603.4z"/>
			<path id="XMLID_12_" class="st4" d="M814.2,642.5c0,0-35.4,70-165.2,67.1c-28.7-0.6-37.9,32.8-75.1,26.8
				c-35-5.6-51.5-43-65.3-44.1c-103.6-13-106.6-86.2-106.6-86.2L814.2,642.5z"/>
			<g id="XMLID_9_">
				<defs>
					<path id="XMLID_10_" d="M397.9,591.2c0,0-2.5,22.9,8.6,38c13.3,18.2,78.8,67.7,138.7,29.7c26.4-16.8,59.4-9.4,84.3,14.9
						c40.8,40,128.8,12.3,198.4-18c10.5-4.5,22.9-9.8,27.3-34.9c10.8-61.2,79.8-481.7-148-518.3C513.8,71.6,434.4,298.3,397.9,591.2
						z"/>
				</defs>
				<clipPath id="XMLID_35_">
					<use xlink:href="#XMLID_10_"  style="overflow:visible;"/>
				</clipPath>
				<path id="XMLID_11_" class="st6" d="M353.9,578.1c0,0-3,27.7,10.3,46c34.6,47.3,243,147.7,509.1,32.1
					c12.6-5.5,27.6-11.9,33-42.1c13.1-73.9,102.8-626.6-173.6-663.3C495.4-80.8,398,224.2,353.9,578.1z"/>
			</g>
			<path id="XMLID_8_" class="st7" d="M772.6,450.7c-11.9-50.2-54.6-69-104.3-12.2c-40.6,46.4-57.8,82.5-61.1,120.4
				c-3.8,43.4,4.5,75.6,66.3,96.5c59.1,20,88.2-17.9,100.6-63.1C785.2,552.1,784.5,501,772.6,450.7z"/>
			<path id="XMLID_7_" class="st7" d="M454.4,413.5c22.8-46.2,70.8-52.2,103.8,15.7c26.9,55.5,30,106.7,23.1,144.2
				c-7.8,42.9-34.1,56.4-85.4,63.7c-61.8,8.8-80.6-39.6-77.1-86.4C421.7,511.9,431.8,459.2,454.4,413.5z"/>
			<path id="XMLID_6_" class="st8" d="M558.2,542.8c3.7,7.7-6.5,13.7-11.5,5.7c-10-16.1-44.7-62.6-101-19.7
				c-7.3,5.5-13.4-2.8-7.1-10.3C471.9,479.4,523.5,469.8,558.2,542.8z"/>
			<path id="XMLID_5_" class="st8" d="M634,551.3c-5.3,6.7,3.4,14.8,10,8.1c13.3-13.5,57.3-51.3,102.9,2.9c5.9,7,13.7,0.2,9.1-8.5
				C732,508.3,683.8,487.6,634,551.3z"/>
		</g>
	</g>
</g>
</svg>
