<svg id="Layer_1" data-name="Layer 1" xmlns="http://www.w3.org/2000/svg" xmlns:xlink="http://www.w3.org/1999/xlink" viewBox="0 0 1664.45 1260.65"><defs><style>.cls-1,.cls-12{fill:none;}.cls-2{fill:#f5be8c;}.cls-3{fill:#fff;}.cls-4{fill:#21454b;}.cls-5{fill:#2bb8c4;}.cls-13,.cls-6{fill:#348c96;}.cls-7{fill:#306e7b;}.cls-8{clip-path:url(#clip-path);}.cls-9{fill:#a3dbdf;}.cls-10{fill:#2bbec6;}.cls-11{fill:#000200;}.cls-12{stroke:#a4dbdf;stroke-miterlimit:10;stroke-width:6px;}.cls-13{font-size:48px;font-family:Butler;font-weight:700;}.cls-14{letter-spacing:1px;}.cls-15{letter-spacing:-2px;}</style><clipPath id="clip-path"><path id="_Clipping_Path_" data-name="&lt;Clipping Path&gt;" class="cls-1" d="M799.65,660s3.77,22.91,18.63,34.61c15.64,12.32,46.55,24.85,102.15,25.32,37.42,0.31,42.57-21.26,78.87-29.22s57.95,12,98.54-3c47.94-17.65,86.11-40.47,136.7-81.57,8.93-7.25,19.53-15.74,17-41.25-6.08-62.35-53.16-489.28-284.24-463C771.22,124.08,755.62,365.78,799.65,660Z"/></clipPath></defs><title>AlohaAI_Logo_ver1108</title><circle class="cls-2" cx="1036.42" cy="628.04" r="628.04"/><circle class="cls-3" cx="1036.42" cy="628.04" r="612.09"/><g id="_Group_" data-name="&lt;Group&gt;"><g id="_Group_2" data-name="&lt;Group&gt;"><path id="_Path_" data-name="&lt;Path&gt;" class="cls-4" d="M893.68,1020.27s-4,19,1.64,28.8,1.36-13.42,6.78-21.49C907.24,1019.92,895.9,1014.67,893.68,1020.27Z"/><path id="_Path_2" data-name="&lt;Path&gt;" class="cls-4" d="M906.91,1023.81s1.81,19.3,10.12,27-2.69-13.22.1-22.54C919.76,1019.46,907.37,1017.81,906.91,1023.81Z"/><path id="_Path_3" data-name="&lt;Path&gt;" class="cls-4" d="M925.07,1021.48s3.2,19.12,12,26.21-3.63-13-1.53-22.48C937.57,1016.21,925.09,1015.47,925.07,1021.48Z"/><path id="_Path_4" data-name="&lt;Path&gt;" class="cls-4" d="M892.76,1002.65s-15.23,13.68-16.73,25.17,9.55-10.51,19.12-14.2C904.22,1010.12,898.11,999.22,892.76,1002.65Z"/><path id="_Path_5" data-name="&lt;Path&gt;" class="cls-5" d="M985.83,947.74s8.75,99,8.08,124.62c-0.49,18.77-77.49,12.53-53.18,46.15,19.5,27,74.13-12.45,74.13-32.73,0-18.3-5.2-144-5.2-144Z"/><path id="_Path_6" data-name="&lt;Path&gt;" class="cls-5" d="M1106.94,956.3s1.93,99.43,5.6,124.75c3.58,24.69,75,49,36.69,66.06-37.54,16.36-54.12-32.86-56.05-50.43-2-18.19-10.59-143.75-10.59-143.75Z"/><path id="_Path_7" data-name="&lt;Path&gt;" class="cls-5" d="M1135.35,769.12c109.79,54.1,160.39-111.53,182.77-100.72,19.65,9.49,54.21,28.33,38,47.68-92.39,110.35-160.68,119.07-244.16,75C1055.06,761,1135.35,769.12,1135.35,769.12Z"/><path id="_Path_8" data-name="&lt;Path&gt;" class="cls-5" d="M983.2,776.42c-36.49,39.36-81.58,156.85-96,218.36-10.36,44.16,53.87,47.6,58.15,13.57,5.84-46.49,28.32-173.57,59.63-219.71S983.2,776.42,983.2,776.42Z"/><path id="_Path_9" data-name="&lt;Path&gt;" class="cls-5" d="M1119.39,784.06c15.89,21.74,51.36,87.64,31.13,179.16-22.37,101.19-174.94,69.62-192.49,17.56-23.12-68.57,13-175.18,27.07-197.86C1010.6,741.74,1086.64,739.24,1119.39,784.06Z"/><path id="_Path_10" data-name="&lt;Path&gt;" class="cls-6" d="M1100.24,788.59c10.73,28.18,35.89,93.06,10,158-28.09,70.46-118.93,50.36-134.76,1.14-18.54-57.63,20.92-157.26,20.92-157.26S1047.13,743.69,1100.24,788.59Z"/><path id="_Path_11" data-name="&lt;Path&gt;" class="cls-4" d="M1356,707.1s15-12.23,16.84-23.42-9.49,9.58-18.79,12.44C1345.28,698.83,1350.79,710,1356,707.1Z"/><path id="_Path_12" data-name="&lt;Path&gt;" class="cls-4" d="M1342.85,690.65s15-12.23,16.84-23.42-9.5,9.58-18.79,12.44C1332.09,682.39,1337.6,693.6,1342.85,690.65Z"/><path id="_Path_13" data-name="&lt;Path&gt;" class="cls-4" d="M1327.58,679.24s12-15.25,11.25-26.56-7.14,11.44-15.58,16.28C1315.26,673.56,1323.12,683.28,1327.58,679.24Z"/><path id="_Path_14" data-name="&lt;Path&gt;" class="cls-4" d="M1294,685.36s2.62-19.39,11.29-26.65-3.25,13.19-.83,22.79C1306.77,690.59,1294.23,691.45,1294,685.36Z"/></g><g id="_Group_3" data-name="&lt;Group&gt;"><g id="_Group_4" data-name="&lt;Group&gt;"><path id="_Path_15" data-name="&lt;Path&gt;" class="cls-5" d="M1226.9,539.11c15.8-7.81,157.33-87.7,142.31-55.64-18.43,39.32-111.92,139.26-161.44,180.53C1091.28,761.08,1216.13,562.69,1226.9,539.11Z"/><path id="_Path_16" data-name="&lt;Path&gt;" class="cls-7" d="M1224,595.06c38.12-44.08,160.21-143.64,145.19-111.59-18.43,39.32-74.37,101.83-125.92,148.24C1130.6,733.19,1213.25,618.64,1224,595.06Z"/><path id="_Path_17" data-name="&lt;Path&gt;" class="cls-5" d="M798.5,629.71S648.6,621.3,677.77,644c33,25.69,152.12,69.46,207.89,76.85,52.45,7-21.08-97.86-21.08-97.86Z"/><path id="_Path_18" data-name="&lt;Path&gt;" class="cls-7" d="M836,684.89S648.6,621.3,677.77,644c33,25.69,137,76.11,192.81,83.5,52.45,7-3-94.25-3-94.25Z"/><path id="_Path_19" data-name="&lt;Path&gt;" class="cls-6" d="M803.71,671.62c127.13,233.29,423.74,142.68,442.38-101.47Z"/></g><path id="_Path_20" data-name="&lt;Path&gt;" class="cls-4" d="M1217.71,596.87S1138.11,724,1017.49,743.63s-209.82-70.22-209.82-70.22Z"/><g id="_Clip_Group_" data-name="&lt;Clip Group&gt;"><g class="cls-8"><path id="_Path_21" data-name="&lt;Path&gt;" class="cls-5" d="M753.36,659.18s4.56,27.68,22.5,41.81c46.37,36.53,275.94,77.51,502.95-106.89,10.79-8.77,23.6-19,20.59-49.84C1292.06,468.94,1229.21-91.86,951-52.56,712-18.8,700.16,303.73,753.36,659.18Z"/></g></g><path id="_Path_22" data-name="&lt;Path&gt;" class="cls-9" d="M1125.25,421.91c-25.12-45.48-71.69-52.17-104.53,16.4-26.84,56-30.73,126.34-23.64,164,8.12,43.19,41.55,57.22,87.55,45.2,60.83-15.9,80.74-41.31,80.54-88.54C1165,517,1150.47,467.58,1125.25,421.91Z"/><path id="_Path_23" data-name="&lt;Path&gt;" class="cls-9" d="M806.27,472.12c9.61-51.06,54.62-69.84,105-12.92,41.2,46.52,60.91,115.5,64.45,153.69,4.05,43.76-20.93,64-68.47,65-62.87,1.41-89-16.61-98.29-62.92C801.25,576.49,796.77,522.61,806.27,472.12Z"/><g id="_Group_5" data-name="&lt;Group&gt;"><circle id="_Path_24" data-name="&lt;Path&gt;" class="cls-10" cx="1084.12" cy="531.6" r="60.81" transform="translate(-85.37 231.24) rotate(-11.72)"/><circle id="_Path_25" data-name="&lt;Path&gt;" class="cls-11" cx="1084.12" cy="531.6" r="55.13" transform="translate(-85.36 231.23) rotate(-11.72)"/><circle id="_Path_26" data-name="&lt;Path&gt;" class="cls-3" cx="1057.79" cy="511.3" r="11.3" transform="translate(-60.87 152.22) rotate(-8)"/></g><g id="_Group_6" data-name="&lt;Group&gt;"><circle id="_Path_27" data-name="&lt;Path&gt;" class="cls-10" cx="889.35" cy="570.21" r="60.81" transform="translate(-97.27 192.49) rotate(-11.72)"/><circle id="_Path_28" data-name="&lt;Path&gt;" class="cls-11" cx="889.35" cy="570.21" r="55.13" transform="translate(-97.26 192.48) rotate(-11.72)"/><circle id="_Path_29" data-name="&lt;Path&gt;" class="cls-3" cx="863.02" cy="549.91" r="11.3" transform="matrix(0.99, -0.14, 0.14, 0.99, -68.16, 125.52)"/></g></g></g><path class="cls-3" d="M682.48,340.06H43.07A33.54,33.54,0,0,0,9.54,373.6V484.93a33.54,33.54,0,0,0,33.54,33.54H577.28c6.47,16.22,17.87,38,33.74,42.75,0,0-11.38-25.09-5-42.75h76.43A33.54,33.54,0,0,0,716,484.93V373.6A33.54,33.54,0,0,0,682.48,340.06Z"/><path class="cls-12" d="M682.48,340.06H43.07A33.54,33.54,0,0,0,9.54,373.6V484.93a33.54,33.54,0,0,0,33.54,33.54H577.28c6.47,16.22,17.87,38,33.74,42.75,0,0-11.38-25.09-5-42.75h76.43A33.54,33.54,0,0,0,716,484.93V373.6A33.54,33.54,0,0,0,682.48,340.06Z"/><text class="cls-13" transform="translate(46.48 451.67)"><tspan class="cls-14">It</tspan><tspan class="cls-15" x="38.59" y="0">’</tspan><tspan class="cls-14" x="49.58" y="0">s a pleasure to meet </tspan><tspan x="525.06" y="0">y</tspan><tspan class="cls-14" x="550.7" y="0">ou!</tspan></text></svg>